{"glyphs":{"0":{"ha":868,"x_min":0,"x_max":694,"o":"m 174 1042 l 260 1042 l 347 1042 l 434 1042 l 521 1042 l 521 955 l 608 955 l 608 868 l 694 868 l 694 781 l 694 694 l 694 608 l 694 521 l 694 434 l 694 347 l 694 260 l 694 174 l 608 174 l 608 87 l 521 87 l 521 0 l 434 0 l 347 0 l 260 0 l 174 0 l 174 87 l 87 87 l 87 174 l 0 174 l 0 260 l 0 347 l 0 434 l 0 521 l 0 608 l 0 694 l 0 781 l 0 868 l 87 868 l 87 955 l 174 955 l 174 1042 m 260 955 l 260 868 l 174 868 l 174 781 l 174 694 l 174 608 l 174 521 l 174 434 l 174 347 l 174 260 l 260 260 l 260 347 l 260 434 l 260 521 l 260 608 l 347 608 l 347 694 l 347 781 l 347 868 l 434 868 l 434 955 l 347 955 l 260 955 m 434 781 l 434 694 l 434 608 l 434 521 l 434 434 l 347 434 l 347 347 l 347 260 l 347 174 l 260 174 l 260 87 l 347 87 l 434 87 l 434 174 l 521 174 l 521 260 l 521 347 l 521 434 l 521 521 l 521 608 l 521 694 l 521 781 l 434 781 z "},"1":{"ha":868,"x_min":0,"x_max":608,"o":"m 260 1042 l 347 1042 l 434 1042 l 434 955 l 434 868 l 434 781 l 434 694 l 434 608 l 434 521 l 434 434 l 434 347 l 434 260 l 434 174 l 434 87 l 521 87 l 608 87 l 608 0 l 521 0 l 434 0 l 347 0 l 260 0 l 174 0 l 87 0 l 87 87 l 174 87 l 260 87 l 260 174 l 260 260 l 260 347 l 260 434 l 260 521 l 260 608 l 260 694 l 260 781 l 174 781 l 174 694 l 87 694 l 87 781 l 87 868 l 174 868 l 174 955 l 260 955 l 260 1042 m 87 87 l 0 87 l 0 174 l 0 260 l 87 260 l 87 174 l 87 87 m 87 260 l 87 347 l 174 347 l 174 260 l 87 260 z "},"2":{"ha":868,"x_min":0,"x_max":694,"o":"m 174 1042 l 260 1042 l 347 1042 l 434 1042 l 521 1042 l 608 1042 l 608 955 l 694 955 l 694 868 l 694 781 l 694 694 l 694 608 l 608 608 l 608 521 l 521 521 l 521 434 l 434 434 l 434 347 l 347 347 l 347 260 l 260 260 l 260 174 l 174 174 l 174 87 l 260 87 l 347 87 l 434 87 l 521 87 l 521 174 l 434 174 l 434 260 l 521 260 l 608 260 l 608 174 l 694 174 l 694 87 l 694 0 l 608 0 l 521 0 l 434 0 l 347 0 l 260 0 l 174 0 l 87 0 l 0 0 l 0 87 l 0 174 l 0 260 l 87 260 l 87 347 l 174 347 l 174 434 l 260 434 l 260 521 l 347 521 l 347 608 l 434 608 l 434 694 l 521 694 l 521 781 l 521 868 l 434 868 l 434 955 l 347 955 l 260 955 l 260 868 l 174 868 l 174 781 l 174 694 l 260 694 l 260 608 l 174 608 l 87 608 l 87 694 l 0 694 l 0 781 l 0 868 l 87 868 l 87 955 l 174 955 l 174 1042 m 260 694 l 260 781 l 347 781 l 347 694 l 260 694 z "},"3":{"ha":868,"x_min":0,"x_max":694,"o":"m 174 1042 l 260 1042 l 347 1042 l 434 1042 l 521 1042 l 521 955 l 608 955 l 608 868 l 694 868 l 694 781 l 694 694 l 694 608 l 608 608 l 608 521 l 694 521 l 694 434 l 694 347 l 694 260 l 694 174 l 608 174 l 608 87 l 521 87 l 521 0 l 434 0 l 347 0 l 260 0 l 174 0 l 174 87 l 87 87 l 87 174 l 0 174 l 0 260 l 0 347 l 87 347 l 87 434 l 174 434 l 174 347 l 174 260 l 174 174 l 260 174 l 260 87 l 347 87 l 434 87 l 434 174 l 521 174 l 521 260 l 521 347 l 521 434 l 521 521 l 434 521 l 347 521 l 347 608 l 434 608 l 521 608 l 521 694 l 521 781 l 521 868 l 434 868 l 434 955 l 347 955 l 260 955 l 260 868 l 174 868 l 174 781 l 174 694 l 174 608 l 87 608 l 87 694 l 0 694 l 0 781 l 0 868 l 87 868 l 87 955 l 174 955 l 174 1042 m 174 434 l 174 521 l 260 521 l 347 521 l 347 434 l 260 434 l 174 434 m 347 434 l 434 434 l 434 347 l 347 347 l 347 434 z "},"4":{"ha":868,"x_min":0,"x_max":781,"o":"m 434 1042 l 521 1042 l 608 1042 l 608 955 l 608 868 l 608 781 l 608 694 l 608 608 l 608 521 l 694 521 l 781 521 l 781 434 l 694 434 l 694 347 l 608 347 l 608 260 l 608 174 l 608 87 l 694 87 l 694 0 l 608 0 l 521 0 l 434 0 l 434 87 l 434 174 l 434 260 l 434 347 l 434 434 l 347 434 l 260 434 l 174 434 l 87 434 l 0 434 l 0 521 l 0 608 l 87 608 l 87 694 l 174 694 l 174 781 l 260 781 l 260 868 l 347 868 l 347 955 l 434 955 l 434 1042 m 694 347 l 781 347 l 781 260 l 781 174 l 781 87 l 694 87 l 694 174 l 694 260 l 694 347 m 347 781 l 347 694 l 260 694 l 260 608 l 174 608 l 174 521 l 260 521 l 347 521 l 434 521 l 434 608 l 434 694 l 434 781 l 347 781 z "},"5":{"ha":868,"x_min":0,"x_max":694,"o":"m 0 1042 l 87 1042 l 174 1042 l 260 1042 l 347 1042 l 434 1042 l 521 1042 l 608 1042 l 694 1042 l 694 955 l 694 868 l 608 868 l 608 781 l 521 781 l 434 781 l 434 868 l 521 868 l 521 955 l 434 955 l 347 955 l 260 955 l 260 868 l 174 868 l 174 781 l 174 694 l 174 608 l 260 608 l 347 608 l 434 608 l 521 608 l 608 608 l 608 521 l 694 521 l 694 434 l 694 347 l 694 260 l 694 174 l 694 87 l 608 87 l 608 0 l 521 0 l 434 0 l 347 0 l 260 0 l 174 0 l 87 0 l 87 87 l 0 87 l 0 174 l 0 260 l 0 347 l 87 347 l 87 434 l 174 434 l 260 434 l 260 347 l 174 347 l 174 260 l 174 174 l 260 174 l 260 87 l 347 87 l 434 87 l 434 174 l 521 174 l 521 260 l 521 347 l 521 434 l 434 434 l 434 521 l 347 521 l 260 521 l 174 521 l 87 521 l 0 521 l 0 608 l 0 694 l 0 781 l 0 868 l 0 955 l 0 1042 m 260 347 l 347 347 l 347 260 l 260 260 l 260 347 z "},"6":{"ha":868,"x_min":0,"x_max":694,"o":"m 174 1042 l 260 1042 l 347 1042 l 434 1042 l 521 1042 l 521 955 l 608 955 l 608 868 l 694 868 l 694 781 l 608 781 l 608 694 l 521 694 l 521 781 l 521 868 l 434 868 l 434 955 l 347 955 l 260 955 l 260 868 l 174 868 l 174 781 l 174 694 l 174 608 l 174 521 l 260 521 l 260 434 l 260 347 l 174 347 l 174 260 l 174 174 l 260 174 l 260 87 l 347 87 l 434 87 l 434 174 l 521 174 l 521 260 l 521 347 l 521 434 l 434 434 l 434 521 l 347 521 l 260 521 l 260 608 l 347 608 l 434 608 l 521 608 l 521 521 l 608 521 l 608 434 l 694 434 l 694 347 l 694 260 l 694 174 l 608 174 l 608 87 l 521 87 l 521 0 l 434 0 l 347 0 l 260 0 l 174 0 l 174 87 l 87 87 l 87 174 l 0 174 l 0 260 l 0 347 l 0 434 l 0 521 l 0 608 l 0 694 l 0 781 l 0 868 l 87 868 l 87 955 l 174 955 l 174 1042 m 260 347 l 347 347 l 347 260 l 260 260 l 260 347 m 347 347 l 347 434 l 434 434 l 434 347 l 347 347 z "},"7":{"ha":868,"x_min":0,"x_max":694,"o":"m 0 1042 l 87 1042 l 174 1042 l 174 955 l 260 955 l 347 955 l 347 1042 l 434 1042 l 521 1042 l 608 1042 l 694 1042 l 694 955 l 694 868 l 694 781 l 694 694 l 608 694 l 608 608 l 694 608 l 694 521 l 608 521 l 521 521 l 521 434 l 521 347 l 434 347 l 434 260 l 434 174 l 347 174 l 347 87 l 347 0 l 260 0 l 174 0 l 174 87 l 174 174 l 260 174 l 260 260 l 260 347 l 347 347 l 347 434 l 347 521 l 260 521 l 174 521 l 87 521 l 87 608 l 174 608 l 260 608 l 347 608 l 434 608 l 434 694 l 521 694 l 521 781 l 521 868 l 521 955 l 434 955 l 434 868 l 347 868 l 260 868 l 174 868 l 87 868 l 87 955 l 0 955 l 0 1042 z "},"8":{"ha":868,"x_min":0,"x_max":694,"o":"m 87 1042 l 174 1042 l 260 1042 l 347 1042 l 434 1042 l 521 1042 l 608 1042 l 608 955 l 694 955 l 694 868 l 694 781 l 694 694 l 608 694 l 608 608 l 521 608 l 521 521 l 608 521 l 608 434 l 694 434 l 694 347 l 694 260 l 694 174 l 694 87 l 608 87 l 608 0 l 521 0 l 434 0 l 347 0 l 260 0 l 174 0 l 87 0 l 87 87 l 0 87 l 0 174 l 0 260 l 0 347 l 0 434 l 87 434 l 87 521 l 174 521 l 174 608 l 87 608 l 87 694 l 0 694 l 0 781 l 0 868 l 0 955 l 87 955 l 87 1042 m 260 955 l 260 868 l 174 868 l 174 781 l 174 694 l 260 694 l 260 608 l 347 608 l 347 694 l 434 694 l 434 781 l 521 781 l 521 868 l 434 868 l 434 955 l 347 955 l 260 955 m 347 521 l 347 434 l 260 434 l 260 347 l 174 347 l 174 260 l 174 174 l 260 174 l 260 87 l 347 87 l 434 87 l 434 174 l 521 174 l 521 260 l 521 347 l 521 434 l 434 434 l 434 521 l 347 521 z "},"9":{"ha":868,"x_min":0,"x_max":694,"o":"m 174 1042 l 260 1042 l 347 1042 l 434 1042 l 521 1042 l 521 955 l 608 955 l 608 868 l 694 868 l 694 781 l 694 694 l 694 608 l 694 521 l 694 434 l 694 347 l 694 260 l 694 174 l 608 174 l 608 87 l 521 87 l 521 0 l 434 0 l 347 0 l 260 0 l 174 0 l 174 87 l 87 87 l 87 174 l 0 174 l 0 260 l 0 347 l 87 347 l 87 434 l 174 434 l 174 347 l 174 260 l 174 174 l 260 174 l 260 87 l 347 87 l 434 87 l 434 174 l 521 174 l 521 260 l 521 347 l 521 434 l 521 521 l 434 521 l 434 608 l 521 608 l 521 694 l 521 781 l 521 868 l 434 868 l 434 955 l 347 955 l 260 955 l 260 868 l 174 868 l 174 781 l 174 694 l 174 608 l 260 608 l 260 521 l 347 521 l 434 521 l 434 434 l 347 434 l 260 434 l 174 434 l 174 521 l 87 521 l 87 608 l 0 608 l 0 694 l 0 781 l 0 868 l 87 868 l 87 955 l 174 955 l 174 1042 z "}," ":{"ha":521,"x_min":0,"x_max":0,"o":""},"!":{"ha":260,"x_min":0,"x_max":174,"o":"m 0 1042 l 87 1042 l 174 1042 l 174 955 l 174 868 l 174 781 l 174 694 l 174 608 l 174 521 l 174 434 l 174 347 l 87 347 l 0 347 l 0 434 l 0 521 l 0 608 l 0 694 l 0 781 l 0 868 l 0 955 l 0 1042 m 0 174 l 87 174 l 174 174 l 174 87 l 174 0 l 87 0 l 0 0 l 0 87 l 0 174 z "},"\"":{"ha":521,"x_min":0,"x_max":434,"o":"m 0 1042 l 87 1042 l 174 1042 l 174 955 l 174 868 l 174 781 l 87 781 l 87 868 l 0 868 l 0 955 l 0 1042 m 260 1042 l 347 1042 l 434 1042 l 434 955 l 434 868 l 434 781 l 347 781 l 347 868 l 260 868 l 260 955 l 260 1042 z "},"#":{"ha":955,"x_min":0,"x_max":868,"o":"m 260 1042 l 347 1042 l 347 955 l 347 868 l 347 781 l 434 781 l 521 781 l 521 868 l 521 955 l 521 1042 l 608 1042 l 608 955 l 608 868 l 608 781 l 694 781 l 781 781 l 868 781 l 868 694 l 781 694 l 781 608 l 694 608 l 608 608 l 608 521 l 608 434 l 694 434 l 781 434 l 868 434 l 868 347 l 781 347 l 781 260 l 694 260 l 608 260 l 608 174 l 608 87 l 608 0 l 521 0 l 521 87 l 521 174 l 521 260 l 434 260 l 347 260 l 347 174 l 347 87 l 347 0 l 260 0 l 260 87 l 260 174 l 260 260 l 174 260 l 87 260 l 0 260 l 0 347 l 87 347 l 87 434 l 174 434 l 260 434 l 260 521 l 260 608 l 174 608 l 87 608 l 0 608 l 0 694 l 87 694 l 87 781 l 174 781 l 260 781 l 260 868 l 260 955 l 260 1042 m 347 608 l 347 521 l 347 434 l 434 434 l 521 434 l 521 521 l 521 608 l 434 608 l 347 608 z "},"$":{"ha":694,"x_min":0,"x_max":608,"o":"m 260 1128 l 347 1128 l 347 1042 l 434 1042 l 521 1042 l 521 955 l 608 955 l 608 868 l 608 781 l 521 781 l 521 868 l 434 868 l 434 955 l 347 955 l 347 868 l 347 781 l 347 694 l 347 608 l 434 608 l 434 521 l 521 521 l 521 434 l 608 434 l 608 347 l 608 260 l 608 174 l 608 87 l 521 87 l 521 0 l 434 0 l 347 0 l 347 -87 l 260 -87 l 260 0 l 174 0 l 87 0 l 87 87 l 0 87 l 0 174 l 0 260 l 87 260 l 87 174 l 174 174 l 174 87 l 260 87 l 260 174 l 260 260 l 260 347 l 260 434 l 174 434 l 174 521 l 87 521 l 87 608 l 0 608 l 0 694 l 0 781 l 0 868 l 0 955 l 87 955 l 87 1042 l 174 1042 l 260 1042 l 260 1128 m 174 955 l 174 868 l 174 781 l 174 694 l 174 608 l 260 608 l 260 694 l 260 781 l 260 868 l 260 955 l 174 955 m 347 434 l 347 347 l 347 260 l 347 174 l 347 87 l 434 87 l 434 174 l 434 260 l 434 347 l 434 434 l 347 434 z "},"%":{"ha":1042,"x_min":0,"x_max":955,"o":"m 694 1042 l 781 1042 l 868 1042 l 868 955 l 781 955 l 781 868 l 694 868 l 694 781 l 694 694 l 608 694 l 608 608 l 608 521 l 521 521 l 521 434 l 521 347 l 434 347 l 434 260 l 434 174 l 347 174 l 347 87 l 260 87 l 260 0 l 174 0 l 87 0 l 87 87 l 174 87 l 174 174 l 260 174 l 260 260 l 260 347 l 347 347 l 347 434 l 347 521 l 434 521 l 434 608 l 434 694 l 521 694 l 521 781 l 521 868 l 608 868 l 608 955 l 694 955 l 694 1042 m 87 955 l 174 955 l 260 955 l 260 868 l 174 868 l 87 868 l 87 955 m 260 868 l 347 868 l 347 781 l 347 694 l 260 694 l 260 781 l 260 868 m 260 694 l 260 608 l 174 608 l 87 608 l 87 694 l 174 694 l 260 694 m 87 694 l 0 694 l 0 781 l 0 868 l 87 868 l 87 781 l 87 694 m 694 434 l 781 434 l 868 434 l 868 347 l 781 347 l 694 347 l 694 434 m 868 347 l 955 347 l 955 260 l 955 174 l 868 174 l 868 260 l 868 347 m 868 174 l 868 87 l 781 87 l 694 87 l 694 174 l 781 174 l 868 174 m 694 174 l 608 174 l 608 260 l 608 347 l 694 347 l 694 260 l 694 174 z "},"&":{"ha":1128,"x_min":0,"x_max":1042,"o":"m 174 1042 l 260 1042 l 347 1042 l 434 1042 l 434 955 l 521 955 l 521 868 l 608 868 l 608 781 l 608 694 l 521 694 l 521 608 l 434 608 l 434 694 l 434 781 l 434 868 l 347 868 l 347 955 l 260 955 l 260 868 l 174 868 l 174 781 l 174 694 l 260 694 l 260 608 l 347 608 l 434 608 l 434 521 l 434 434 l 521 434 l 608 434 l 608 521 l 694 521 l 694 608 l 781 608 l 781 694 l 868 694 l 955 694 l 955 608 l 868 608 l 868 521 l 781 521 l 781 434 l 694 434 l 694 347 l 608 347 l 608 260 l 694 260 l 694 174 l 781 174 l 781 87 l 868 87 l 868 174 l 955 174 l 1042 174 l 1042 87 l 955 87 l 955 0 l 868 0 l 781 0 l 694 0 l 694 87 l 608 87 l 608 174 l 521 174 l 521 87 l 434 87 l 434 0 l 347 0 l 260 0 l 174 0 l 87 0 l 87 87 l 0 87 l 0 174 l 0 260 l 0 347 l 0 434 l 87 434 l 87 521 l 174 521 l 174 608 l 87 608 l 87 694 l 0 694 l 0 781 l 0 868 l 87 868 l 87 955 l 174 955 l 174 1042 m 174 434 l 174 347 l 174 260 l 174 174 l 174 87 l 260 87 l 347 87 l 347 174 l 434 174 l 434 260 l 434 347 l 347 347 l 347 434 l 260 434 l 174 434 z "},"'":{"ha":260,"x_min":0,"x_max":174,"o":"m 0 1042 l 87 1042 l 174 1042 l 174 955 l 174 868 l 174 781 l 87 781 l 87 868 l 0 868 l 0 955 l 0 1042 z "},"(":{"ha":347,"x_min":0,"x_max":260,"o":"m 174 1042 l 260 1042 l 260 955 l 174 955 l 174 1042 m 174 955 l 174 868 l 174 781 l 174 694 l 174 608 l 174 521 l 174 434 l 174 347 l 174 260 l 174 174 l 174 87 l 87 87 l 87 174 l 0 174 l 0 260 l 0 347 l 0 434 l 0 521 l 0 608 l 0 694 l 0 781 l 0 868 l 87 868 l 87 955 l 174 955 m 174 87 l 260 87 l 260 0 l 174 0 l 174 87 z "},")":{"ha":347,"x_min":0,"x_max":260,"o":"m 0 1042 l 87 1042 l 87 955 l 0 955 l 0 1042 m 87 955 l 174 955 l 174 868 l 260 868 l 260 781 l 260 694 l 260 608 l 260 521 l 260 434 l 260 347 l 260 260 l 260 174 l 174 174 l 174 87 l 87 87 l 87 174 l 87 260 l 87 347 l 87 434 l 87 521 l 87 608 l 87 694 l 87 781 l 87 868 l 87 955 m 87 87 l 87 0 l 0 0 l 0 87 l 87 87 z "},"*":{"ha":347,"x_min":0,"x_max":260,"o":"m 0 1042 l 87 1042 l 87 955 l 0 955 l 0 1042 m 87 955 l 174 955 l 174 868 l 87 868 l 87 955 m 174 955 l 174 1042 l 260 1042 l 260 955 l 174 955 m 174 868 l 260 868 l 260 781 l 174 781 l 174 868 m 87 868 l 87 781 l 0 781 l 0 868 l 87 868 z "},"+":{"ha":694,"x_min":0,"x_max":608,"o":"m 260 694 l 347 694 l 347 608 l 347 521 l 347 434 l 434 434 l 521 434 l 608 434 l 608 347 l 608 260 l 521 260 l 434 260 l 347 260 l 347 174 l 347 87 l 347 0 l 260 0 l 260 87 l 260 174 l 260 260 l 174 260 l 87 260 l 0 260 l 0 347 l 0 434 l 87 434 l 174 434 l 260 434 l 260 521 l 260 608 l 260 694 z "},",":{"ha":347,"x_min":0,"x_max":174,"o":"m 0 87 l 87 87 l 174 87 l 174 0 l 174 -87 l 174 -174 l 87 -174 l 87 -87 l 0 -87 l 0 0 l 0 87 z "},"-":{"ha":694,"x_min":0,"x_max":521,"o":"m 0 434 l 87 434 l 174 434 l 260 434 l 347 434 l 434 434 l 521 434 l 521 347 l 521 260 l 434 260 l 347 260 l 260 260 l 174 260 l 87 260 l 0 260 l 0 347 l 0 434 z "},".":{"ha":260,"x_min":0,"x_max":174,"o":"m 0 174 l 87 174 l 174 174 l 174 87 l 174 0 l 87 0 l 0 0 l 0 87 l 0 174 z "},"/":{"ha":608,"x_min":0,"x_max":521,"o":"m 434 1042 l 521 1042 l 521 955 l 521 868 l 521 781 l 434 781 l 434 694 l 434 608 l 347 608 l 347 521 l 347 434 l 260 434 l 260 347 l 260 260 l 174 260 l 174 174 l 174 87 l 87 87 l 87 0 l 0 0 l 0 87 l 0 174 l 87 174 l 87 260 l 87 347 l 174 347 l 174 434 l 174 521 l 260 521 l 260 608 l 260 694 l 347 694 l 347 781 l 347 868 l 434 868 l 434 955 l 434 1042 z "},":":{"ha":260,"x_min":0,"x_max":174,"o":"m 0 608 l 87 608 l 174 608 l 174 521 l 174 434 l 87 434 l 0 434 l 0 521 l 0 608 m 0 174 l 87 174 l 174 174 l 174 87 l 174 0 l 87 0 l 0 0 l 0 87 l 0 174 z "},";":{"ha":260,"x_min":0,"x_max":174,"o":"m 0 608 l 87 608 l 174 608 l 174 521 l 174 434 l 87 434 l 0 434 l 0 521 l 0 608 m 0 87 l 87 87 l 174 87 l 174 0 l 174 -87 l 174 -174 l 87 -174 l 87 -87 l 0 -87 l 0 0 l 0 87 z "},"<":{"ha":521,"x_min":0,"x_max":434,"o":"m 260 608 l 347 608 l 434 608 l 434 521 l 347 521 l 347 434 l 260 434 l 260 347 l 174 347 l 174 260 l 260 260 l 260 174 l 347 174 l 347 87 l 434 87 l 434 0 l 347 0 l 260 0 l 260 87 l 174 87 l 174 174 l 87 174 l 87 260 l 0 260 l 0 347 l 87 347 l 87 434 l 174 434 l 174 521 l 260 521 l 260 608 z "},"=":{"ha":608,"x_min":0,"x_max":608,"o":"m 0 608 l 87 608 l 174 608 l 260 608 l 347 608 l 434 608 l 521 608 l 608 608 l 608 521 l 608 434 l 521 434 l 434 434 l 347 434 l 260 434 l 174 434 l 87 434 l 0 434 l 0 521 l 0 608 m 0 260 l 87 260 l 174 260 l 260 260 l 347 260 l 434 260 l 521 260 l 608 260 l 608 174 l 608 87 l 521 87 l 434 87 l 347 87 l 260 87 l 174 87 l 87 87 l 0 87 l 0 174 l 0 260 z "},">":{"ha":521,"x_min":0,"x_max":434,"o":"m 0 608 l 87 608 l 174 608 l 174 521 l 260 521 l 260 434 l 347 434 l 347 347 l 434 347 l 434 260 l 347 260 l 347 174 l 260 174 l 260 87 l 174 87 l 174 0 l 87 0 l 0 0 l 0 87 l 87 87 l 87 174 l 174 174 l 174 260 l 260 260 l 260 347 l 174 347 l 174 434 l 87 434 l 87 521 l 0 521 l 0 608 z "},"?":{"ha":608,"x_min":0,"x_max":521,"o":"m 87 1042 l 174 1042 l 260 1042 l 347 1042 l 434 1042 l 434 955 l 521 955 l 521 868 l 521 781 l 521 694 l 434 694 l 434 608 l 347 608 l 347 521 l 347 434 l 347 347 l 260 347 l 174 347 l 174 434 l 174 521 l 174 608 l 260 608 l 260 694 l 347 694 l 347 781 l 347 868 l 347 955 l 260 955 l 174 955 l 174 868 l 174 781 l 87 781 l 87 694 l 0 694 l 0 781 l 0 868 l 0 955 l 87 955 l 87 1042 m 174 174 l 260 174 l 347 174 l 347 87 l 347 0 l 260 0 l 174 0 l 174 87 l 174 174 z "},"@":{"ha":781,"x_min":0,"x_max":694,"o":"m 174 694 l 260 694 l 347 694 l 434 694 l 521 694 l 521 608 l 434 608 l 347 608 l 260 608 l 174 608 l 174 694 m 521 608 l 608 608 l 608 521 l 521 521 l 521 608 m 608 521 l 694 521 l 694 434 l 694 347 l 694 260 l 694 174 l 608 174 l 608 260 l 608 347 l 608 434 l 608 521 m 608 174 l 608 87 l 521 87 l 521 174 l 608 174 m 521 87 l 521 0 l 434 0 l 347 0 l 260 0 l 174 0 l 174 87 l 260 87 l 347 87 l 434 87 l 521 87 m 174 87 l 87 87 l 87 174 l 174 174 l 174 87 m 87 174 l 0 174 l 0 260 l 0 347 l 0 434 l 0 521 l 87 521 l 87 434 l 87 347 l 87 260 l 87 174 m 87 521 l 87 608 l 174 608 l 174 521 l 87 521 m 521 174 l 434 174 l 434 260 l 347 260 l 347 347 l 347 434 l 260 434 l 260 521 l 347 521 l 434 521 l 434 434 l 521 434 l 521 347 l 521 260 l 521 174 m 347 260 l 347 174 l 260 174 l 260 260 l 347 260 m 260 260 l 174 260 l 174 347 l 174 434 l 260 434 l 260 347 l 260 260 z "},"A":{"ha":1215,"x_min":0,"x_max":1128,"o":"m 868 1042 l 955 1042 l 1042 1042 l 1042 955 l 955 955 l 955 868 l 955 781 l 955 694 l 955 608 l 955 521 l 955 434 l 955 347 l 955 260 l 955 174 l 955 87 l 1042 87 l 1042 0 l 955 0 l 868 0 l 868 87 l 781 87 l 781 174 l 781 260 l 694 260 l 608 260 l 608 174 l 521 174 l 521 87 l 521 0 l 434 0 l 347 0 l 260 0 l 174 0 l 174 87 l 260 87 l 347 87 l 347 174 l 434 174 l 434 260 l 521 260 l 521 347 l 521 434 l 608 434 l 608 521 l 608 608 l 694 608 l 694 521 l 694 434 l 694 347 l 781 347 l 781 434 l 781 521 l 781 608 l 694 608 l 694 694 l 694 781 l 781 781 l 781 868 l 781 955 l 868 955 l 868 1042 m 1042 955 l 1128 955 l 1128 868 l 1042 868 l 1042 955 m 1042 87 l 1042 174 l 1128 174 l 1128 87 l 1042 87 m 174 87 l 87 87 l 87 174 l 174 174 l 174 87 m 87 174 l 0 174 l 0 260 l 0 347 l 0 434 l 0 521 l 87 521 l 87 434 l 87 347 l 87 260 l 87 174 m 87 521 l 87 608 l 174 608 l 260 608 l 260 521 l 174 521 l 87 521 m 260 521 l 347 521 l 347 434 l 260 434 l 260 521 z "},"B":{"ha":868,"x_min":0,"x_max":781,"o":"m 87 1042 l 174 1042 l 260 1042 l 260 955 l 347 955 l 434 955 l 434 868 l 347 868 l 347 781 l 347 694 l 347 608 l 347 521 l 434 521 l 434 434 l 347 434 l 347 347 l 347 260 l 347 174 l 434 174 l 434 87 l 347 87 l 347 0 l 260 0 l 174 0 l 87 0 l 87 87 l 174 87 l 174 174 l 174 260 l 174 347 l 174 434 l 174 521 l 174 608 l 174 694 l 174 781 l 174 868 l 174 955 l 87 955 l 87 1042 m 434 955 l 434 1042 l 521 1042 l 608 1042 l 694 1042 l 694 955 l 781 955 l 781 868 l 781 781 l 781 694 l 781 608 l 781 521 l 694 521 l 694 434 l 781 434 l 781 347 l 781 260 l 781 174 l 781 87 l 694 87 l 694 0 l 608 0 l 521 0 l 434 0 l 434 87 l 521 87 l 608 87 l 608 174 l 608 260 l 608 347 l 608 434 l 521 434 l 521 521 l 434 521 l 434 608 l 521 608 l 608 608 l 608 694 l 608 781 l 608 868 l 521 868 l 521 955 l 434 955 m 87 87 l 0 87 l 0 174 l 0 260 l 0 347 l 87 347 l 87 260 l 87 174 l 87 87 m 87 955 l 87 868 l 0 868 l 0 955 l 87 955 z "},"C":{"ha":781,"x_min":0,"x_max":694,"o":"m 174 1042 l 260 1042 l 347 1042 l 434 1042 l 521 1042 l 608 1042 l 608 955 l 694 955 l 694 868 l 694 781 l 608 781 l 608 868 l 521 868 l 521 955 l 434 955 l 347 955 l 260 955 l 260 868 l 174 868 l 174 781 l 174 694 l 174 608 l 174 521 l 174 434 l 174 347 l 174 260 l 174 174 l 260 174 l 260 87 l 347 87 l 434 87 l 521 87 l 521 174 l 608 174 l 608 260 l 694 260 l 694 174 l 694 87 l 608 87 l 608 0 l 521 0 l 434 0 l 347 0 l 260 0 l 174 0 l 174 87 l 87 87 l 87 174 l 0 174 l 0 260 l 0 347 l 0 434 l 0 521 l 0 608 l 0 694 l 0 781 l 0 868 l 87 868 l 87 955 l 174 955 l 174 1042 m 608 781 l 608 694 l 521 694 l 434 694 l 434 781 l 521 781 l 608 781 m 434 781 l 347 781 l 347 868 l 434 868 l 434 781 m 608 260 l 521 260 l 521 347 l 608 347 l 608 260 z "},"D":{"ha":868,"x_min":0,"x_max":781,"o":"m 87 1042 l 174 1042 l 260 1042 l 347 1042 l 434 1042 l 521 1042 l 608 1042 l 608 955 l 694 955 l 694 868 l 781 868 l 781 781 l 781 694 l 781 608 l 781 521 l 781 434 l 781 347 l 781 260 l 781 174 l 694 174 l 694 87 l 608 87 l 608 174 l 608 260 l 608 347 l 608 434 l 608 521 l 608 608 l 608 694 l 608 781 l 608 868 l 521 868 l 521 955 l 434 955 l 347 955 l 347 868 l 347 781 l 347 694 l 347 608 l 347 521 l 347 434 l 347 347 l 347 260 l 347 174 l 347 87 l 434 87 l 521 87 l 608 87 l 608 0 l 521 0 l 434 0 l 347 0 l 260 0 l 174 0 l 87 0 l 87 87 l 174 87 l 174 174 l 174 260 l 174 347 l 87 347 l 87 434 l 174 434 l 174 521 l 174 608 l 174 694 l 174 781 l 174 868 l 174 955 l 87 955 l 87 1042 m 87 87 l 0 87 l 0 174 l 0 260 l 0 347 l 87 347 l 87 260 l 87 174 l 87 87 m 87 955 l 87 868 l 0 868 l 0 955 l 87 955 z "},"E":{"ha":955,"x_min":0,"x_max":868,"o":"m 87 1042 l 174 1042 l 260 1042 l 347 1042 l 434 1042 l 521 1042 l 521 955 l 434 955 l 347 955 l 347 868 l 347 781 l 434 781 l 434 694 l 434 608 l 521 608 l 608 608 l 694 608 l 694 521 l 608 521 l 521 521 l 434 521 l 434 434 l 434 347 l 347 347 l 347 260 l 347 174 l 434 174 l 434 87 l 521 87 l 608 87 l 608 174 l 694 174 l 781 174 l 868 174 l 868 87 l 781 87 l 694 87 l 694 0 l 608 0 l 521 0 l 434 0 l 347 0 l 347 87 l 260 87 l 174 87 l 174 174 l 87 174 l 87 260 l 174 260 l 174 347 l 174 434 l 260 434 l 260 521 l 174 521 l 87 521 l 87 608 l 174 608 l 260 608 l 260 694 l 174 694 l 174 781 l 174 868 l 174 955 l 87 955 l 87 1042 m 521 955 l 608 955 l 694 955 l 694 1042 l 781 1042 l 868 1042 l 868 955 l 781 955 l 781 868 l 694 868 l 608 868 l 521 868 l 521 955 m 174 87 l 174 0 l 87 0 l 87 87 l 174 87 m 87 87 l 0 87 l 0 174 l 87 174 l 87 87 m 87 955 l 87 868 l 0 868 l 0 955 l 87 955 z "},"F":{"ha":955,"x_min":0,"x_max":868,"o":"m 87 1042 l 174 1042 l 260 1042 l 347 1042 l 434 1042 l 521 1042 l 521 955 l 608 955 l 694 955 l 694 1042 l 781 1042 l 868 1042 l 868 955 l 781 955 l 781 868 l 694 868 l 608 868 l 521 868 l 434 868 l 434 955 l 347 955 l 347 868 l 347 781 l 347 694 l 434 694 l 434 608 l 521 608 l 608 608 l 694 608 l 781 608 l 781 521 l 694 521 l 608 521 l 521 521 l 521 434 l 434 434 l 434 347 l 434 260 l 347 260 l 347 174 l 347 87 l 260 87 l 260 0 l 174 0 l 87 0 l 87 87 l 174 87 l 174 174 l 174 260 l 174 347 l 260 347 l 260 434 l 260 521 l 260 608 l 174 608 l 174 694 l 174 781 l 174 868 l 174 955 l 87 955 l 87 1042 m 87 87 l 0 87 l 0 174 l 0 260 l 0 347 l 0 434 l 87 434 l 87 347 l 87 260 l 87 174 l 87 87 m 87 434 l 87 521 l 174 521 l 174 434 l 87 434 m 87 955 l 87 868 l 0 868 l 0 955 l 87 955 z "},"G":{"ha":955,"x_min":0,"x_max":868,"o":"m 174 1042 l 260 1042 l 347 1042 l 434 1042 l 521 1042 l 608 1042 l 608 955 l 694 955 l 694 868 l 694 781 l 608 781 l 608 868 l 521 868 l 521 955 l 434 955 l 347 955 l 260 955 l 260 868 l 174 868 l 174 781 l 174 694 l 174 608 l 174 521 l 174 434 l 174 347 l 174 260 l 174 174 l 260 174 l 260 87 l 347 87 l 434 87 l 434 0 l 347 0 l 260 0 l 174 0 l 174 87 l 87 87 l 87 174 l 0 174 l 0 260 l 0 347 l 0 434 l 0 521 l 0 608 l 0 694 l 0 781 l 0 868 l 87 868 l 87 955 l 174 955 l 174 1042 m 608 781 l 608 694 l 521 694 l 434 694 l 434 781 l 521 781 l 608 781 m 434 781 l 347 781 l 347 868 l 434 868 l 434 781 m 434 87 l 434 174 l 521 174 l 521 260 l 521 347 l 521 434 l 521 521 l 434 521 l 347 521 l 347 608 l 434 608 l 521 608 l 608 608 l 608 521 l 694 521 l 694 434 l 694 347 l 694 260 l 694 174 l 694 87 l 781 87 l 781 0 l 694 0 l 608 0 l 608 87 l 521 87 l 434 87 m 694 521 l 694 608 l 781 608 l 781 521 l 694 521 m 781 521 l 868 521 l 868 434 l 781 434 l 781 521 z "},"H":{"ha":955,"x_min":0,"x_max":868,"o":"m 87 1042 l 174 1042 l 260 1042 l 260 955 l 347 955 l 347 868 l 347 781 l 347 694 l 347 608 l 434 608 l 521 608 l 608 608 l 608 694 l 608 781 l 608 868 l 608 955 l 694 955 l 694 1042 l 781 1042 l 781 955 l 781 868 l 781 781 l 781 694 l 781 608 l 781 521 l 781 434 l 781 347 l 781 260 l 781 174 l 781 87 l 868 87 l 868 0 l 781 0 l 694 0 l 694 87 l 608 87 l 608 174 l 608 260 l 608 347 l 521 347 l 434 347 l 434 434 l 521 434 l 608 434 l 608 521 l 521 521 l 434 521 l 434 434 l 347 434 l 347 347 l 347 260 l 347 174 l 347 87 l 260 87 l 260 0 l 174 0 l 87 0 l 87 87 l 174 87 l 174 174 l 174 260 l 174 347 l 87 347 l 87 434 l 174 434 l 174 521 l 174 608 l 174 694 l 174 781 l 174 868 l 174 955 l 87 955 l 87 1042 m 87 87 l 0 87 l 0 174 l 0 260 l 0 347 l 87 347 l 87 260 l 87 174 l 87 87 m 87 955 l 87 868 l 0 868 l 0 955 l 87 955 z "},"I":{"ha":608,"x_min":0,"x_max":521,"o":"m 87 1042 l 174 1042 l 260 1042 l 347 1042 l 434 1042 l 521 1042 l 521 955 l 434 955 l 434 868 l 434 781 l 434 694 l 434 608 l 434 521 l 434 434 l 434 347 l 434 260 l 434 174 l 434 87 l 521 87 l 521 0 l 434 0 l 347 0 l 260 0 l 174 0 l 174 87 l 260 87 l 260 174 l 260 260 l 260 347 l 260 434 l 260 521 l 260 608 l 260 694 l 174 694 l 174 781 l 260 781 l 260 868 l 260 955 l 174 955 l 87 955 l 87 1042 m 174 87 l 87 87 l 87 174 l 174 174 l 174 87 m 174 781 l 87 781 l 87 868 l 174 868 l 174 781 m 87 868 l 0 868 l 0 955 l 87 955 l 87 868 z "},"J":{"ha":868,"x_min":0,"x_max":781,"o":"m 87 1042 l 174 1042 l 260 1042 l 347 1042 l 434 1042 l 434 955 l 521 955 l 521 1042 l 608 1042 l 694 1042 l 781 1042 l 781 955 l 694 955 l 694 868 l 694 781 l 694 694 l 608 694 l 608 608 l 694 608 l 781 608 l 781 521 l 694 521 l 608 521 l 608 434 l 694 434 l 694 347 l 694 260 l 694 174 l 694 87 l 608 87 l 608 0 l 521 0 l 434 0 l 347 0 l 260 0 l 174 0 l 174 87 l 87 87 l 87 174 l 0 174 l 0 260 l 0 347 l 87 347 l 87 434 l 174 434 l 174 347 l 174 260 l 174 174 l 260 174 l 260 87 l 347 87 l 434 87 l 434 174 l 521 174 l 521 260 l 521 347 l 434 347 l 434 434 l 434 521 l 347 521 l 260 521 l 260 608 l 347 608 l 434 608 l 434 694 l 434 781 l 521 781 l 521 868 l 434 868 l 347 868 l 347 955 l 260 955 l 174 955 l 174 868 l 87 868 l 0 868 l 0 955 l 87 955 l 87 1042 z "},"K":{"ha":1128,"x_min":0,"x_max":1042,"o":"m 87 1042 l 174 1042 l 260 1042 l 260 955 l 347 955 l 347 868 l 347 781 l 347 694 l 347 608 l 434 608 l 434 694 l 434 781 l 521 781 l 521 868 l 521 955 l 608 955 l 608 1042 l 694 1042 l 781 1042 l 781 955 l 868 955 l 868 868 l 868 781 l 781 781 l 781 868 l 694 868 l 608 868 l 608 781 l 608 694 l 521 694 l 521 608 l 608 608 l 608 521 l 694 521 l 694 434 l 781 434 l 781 347 l 781 260 l 781 174 l 781 87 l 868 87 l 868 0 l 781 0 l 694 0 l 694 87 l 608 87 l 608 174 l 608 260 l 608 347 l 521 347 l 521 434 l 434 434 l 347 434 l 347 347 l 347 260 l 347 174 l 347 87 l 260 87 l 260 0 l 174 0 l 87 0 l 87 87 l 174 87 l 174 174 l 174 260 l 174 347 l 87 347 l 87 434 l 174 434 l 174 521 l 174 608 l 174 694 l 174 781 l 174 868 l 174 955 l 87 955 l 87 1042 m 868 87 l 868 174 l 955 174 l 955 87 l 868 87 m 955 174 l 955 260 l 955 347 l 955 434 l 1042 434 l 1042 347 l 1042 260 l 1042 174 l 955 174 m 955 434 l 868 434 l 868 521 l 955 521 l 955 434 m 87 87 l 0 87 l 0 174 l 0 260 l 0 347 l 87 347 l 87 260 l 87 174 l 87 87 m 87 955 l 87 868 l 0 868 l 0 955 l 87 955 z "},"L":{"ha":955,"x_min":0,"x_max":868,"o":"m 87 1042 l 174 1042 l 260 1042 l 347 1042 l 434 1042 l 521 1042 l 521 955 l 434 955 l 347 955 l 347 868 l 347 781 l 434 781 l 434 694 l 434 608 l 434 521 l 434 434 l 434 347 l 347 347 l 347 260 l 347 174 l 434 174 l 434 87 l 521 87 l 608 87 l 608 174 l 694 174 l 781 174 l 868 174 l 868 87 l 781 87 l 694 87 l 694 0 l 608 0 l 521 0 l 434 0 l 347 0 l 347 87 l 260 87 l 174 87 l 174 174 l 87 174 l 87 260 l 174 260 l 174 347 l 174 434 l 260 434 l 260 521 l 260 608 l 260 694 l 174 694 l 174 781 l 174 868 l 174 955 l 87 955 l 87 1042 m 521 955 l 608 955 l 608 868 l 521 868 l 521 955 m 608 868 l 694 868 l 694 781 l 694 694 l 608 694 l 608 781 l 608 868 m 608 694 l 608 608 l 521 608 l 521 694 l 608 694 m 174 87 l 174 0 l 87 0 l 87 87 l 174 87 m 87 87 l 0 87 l 0 174 l 87 174 l 87 87 m 87 955 l 87 868 l 0 868 l 0 955 l 87 955 z "},"M":{"ha":1389,"x_min":0,"x_max":1302,"o":"m 87 1042 l 174 1042 l 260 1042 l 260 955 l 347 955 l 347 868 l 434 868 l 434 781 l 347 781 l 347 694 l 347 608 l 347 521 l 347 434 l 347 347 l 347 260 l 347 174 l 347 87 l 347 0 l 260 0 l 174 0 l 87 0 l 87 87 l 174 87 l 174 174 l 174 260 l 174 347 l 87 347 l 87 434 l 174 434 l 174 521 l 174 608 l 174 694 l 174 781 l 174 868 l 174 955 l 87 955 l 87 1042 m 434 868 l 434 955 l 521 955 l 521 1042 l 608 1042 l 608 955 l 694 955 l 694 868 l 781 868 l 781 781 l 694 781 l 694 694 l 694 608 l 694 521 l 694 434 l 694 347 l 694 260 l 694 174 l 694 87 l 608 87 l 608 174 l 521 174 l 521 260 l 521 347 l 521 434 l 521 521 l 521 608 l 521 694 l 521 781 l 521 868 l 434 868 m 781 868 l 781 955 l 868 955 l 868 1042 l 955 1042 l 955 955 l 1042 955 l 1042 868 l 1128 868 l 1128 781 l 1042 781 l 1042 694 l 1042 608 l 1042 521 l 1042 434 l 1042 347 l 1042 260 l 1042 174 l 1042 87 l 1128 87 l 1128 0 l 1042 0 l 955 0 l 868 0 l 868 87 l 868 174 l 868 260 l 868 347 l 868 434 l 868 521 l 868 608 l 868 694 l 868 781 l 868 868 l 781 868 m 1128 87 l 1128 174 l 1215 174 l 1215 87 l 1128 87 m 1215 174 l 1215 260 l 1215 347 l 1302 347 l 1302 260 l 1302 174 l 1215 174 m 1215 347 l 1128 347 l 1128 434 l 1215 434 l 1215 347 m 87 87 l 0 87 l 0 174 l 0 260 l 0 347 l 87 347 l 87 260 l 87 174 l 87 87 m 87 955 l 87 868 l 0 868 l 0 955 l 87 955 z "},"N":{"ha":1128,"x_min":0,"x_max":1042,"o":"m 87 1042 l 174 1042 l 260 1042 l 260 955 l 347 955 l 347 868 l 434 868 l 434 781 l 347 781 l 347 694 l 347 608 l 347 521 l 347 434 l 347 347 l 347 260 l 347 174 l 347 87 l 260 87 l 260 0 l 174 0 l 87 0 l 87 87 l 174 87 l 174 174 l 174 260 l 174 347 l 87 347 l 87 434 l 174 434 l 174 521 l 174 608 l 174 694 l 174 781 l 174 868 l 174 955 l 87 955 l 87 1042 m 434 868 l 434 955 l 521 955 l 608 955 l 608 1042 l 694 1042 l 694 955 l 781 955 l 868 955 l 868 868 l 781 868 l 781 781 l 781 694 l 781 608 l 781 521 l 781 434 l 781 347 l 781 260 l 781 174 l 781 87 l 868 87 l 868 0 l 781 0 l 694 0 l 694 87 l 608 87 l 608 174 l 608 260 l 608 347 l 608 434 l 608 521 l 608 608 l 608 694 l 608 781 l 608 868 l 521 868 l 434 868 m 868 87 l 868 174 l 955 174 l 955 87 l 868 87 m 955 174 l 955 260 l 955 347 l 1042 347 l 1042 260 l 1042 174 l 955 174 m 955 347 l 868 347 l 868 434 l 955 434 l 955 347 m 87 87 l 0 87 l 0 174 l 0 260 l 0 347 l 87 347 l 87 260 l 87 174 l 87 87 m 87 955 l 87 868 l 0 868 l 0 955 l 87 955 z "},"O":{"ha":868,"x_min":0,"x_max":781,"o":"m 174 1042 l 260 1042 l 347 1042 l 434 1042 l 521 1042 l 608 1042 l 608 955 l 694 955 l 694 868 l 781 868 l 781 781 l 781 694 l 781 608 l 781 521 l 781 434 l 781 347 l 781 260 l 781 174 l 694 174 l 694 87 l 608 87 l 608 0 l 521 0 l 434 0 l 347 0 l 260 0 l 174 0 l 174 87 l 87 87 l 87 174 l 0 174 l 0 260 l 0 347 l 0 434 l 0 521 l 0 608 l 0 694 l 0 781 l 0 868 l 87 868 l 87 955 l 174 955 l 174 1042 m 260 955 l 260 868 l 260 781 l 174 781 l 174 694 l 174 608 l 174 521 l 174 434 l 174 347 l 174 260 l 174 174 l 260 174 l 260 87 l 347 87 l 434 87 l 521 87 l 521 174 l 608 174 l 608 260 l 608 347 l 608 434 l 608 521 l 608 608 l 608 694 l 608 781 l 608 868 l 521 868 l 521 955 l 434 955 l 347 955 l 260 955 m 260 781 l 347 781 l 434 781 l 434 694 l 347 694 l 260 694 l 260 781 m 434 781 l 434 868 l 521 868 l 521 781 l 434 781 z "},"P":{"ha":868,"x_min":0,"x_max":781,"o":"m 87 1042 l 174 1042 l 260 1042 l 347 1042 l 434 1042 l 521 1042 l 608 1042 l 694 1042 l 694 955 l 781 955 l 781 868 l 781 781 l 781 694 l 781 608 l 694 608 l 694 521 l 608 521 l 608 434 l 521 434 l 434 434 l 434 521 l 521 521 l 521 608 l 608 608 l 608 694 l 608 781 l 608 868 l 608 955 l 521 955 l 434 955 l 434 868 l 347 868 l 347 781 l 347 694 l 347 608 l 347 521 l 347 434 l 347 347 l 347 260 l 347 174 l 347 87 l 260 87 l 260 0 l 174 0 l 87 0 l 87 87 l 174 87 l 174 174 l 174 260 l 174 347 l 87 347 l 87 434 l 174 434 l 174 521 l 174 608 l 174 694 l 174 781 l 174 868 l 260 868 l 260 955 l 174 955 l 87 955 l 87 1042 m 87 87 l 0 87 l 0 174 l 0 260 l 0 347 l 87 347 l 87 260 l 87 174 l 87 87 m 87 955 l 87 868 l 87 781 l 0 781 l 0 868 l 0 955 l 87 955 z "},"Q":{"ha":955,"x_min":0,"x_max":868,"o":"m 174 1042 l 260 1042 l 347 1042 l 434 1042 l 521 1042 l 608 1042 l 608 955 l 694 955 l 694 868 l 781 868 l 781 781 l 781 694 l 781 608 l 781 521 l 781 434 l 781 347 l 781 260 l 781 174 l 694 174 l 694 87 l 781 87 l 781 0 l 781 -87 l 694 -87 l 608 -87 l 608 0 l 521 0 l 434 0 l 347 0 l 260 0 l 174 0 l 174 87 l 87 87 l 87 174 l 0 174 l 0 260 l 0 347 l 0 434 l 0 521 l 0 608 l 0 694 l 0 781 l 0 868 l 87 868 l 87 955 l 174 955 l 174 1042 m 781 174 l 868 174 l 868 87 l 781 87 l 781 174 m 260 955 l 260 868 l 260 781 l 174 781 l 174 694 l 174 608 l 174 521 l 174 434 l 174 347 l 174 260 l 174 174 l 260 174 l 260 87 l 347 87 l 434 87 l 521 87 l 521 174 l 434 174 l 434 260 l 434 347 l 521 347 l 521 260 l 608 260 l 608 347 l 608 434 l 608 521 l 608 608 l 608 694 l 608 781 l 608 868 l 521 868 l 521 955 l 434 955 l 347 955 l 260 955 m 260 781 l 347 781 l 434 781 l 434 694 l 347 694 l 260 694 l 260 781 m 434 781 l 434 868 l 521 868 l 521 781 l 434 781 z "},"R":{"ha":1128,"x_min":0,"x_max":1042,"o":"m 87 1042 l 174 1042 l 260 1042 l 347 1042 l 434 1042 l 521 1042 l 608 1042 l 694 1042 l 694 955 l 781 955 l 781 868 l 781 781 l 781 694 l 781 608 l 694 608 l 694 521 l 608 521 l 608 434 l 694 434 l 694 347 l 781 347 l 781 260 l 781 174 l 781 87 l 868 87 l 868 0 l 781 0 l 694 0 l 694 87 l 608 87 l 608 174 l 608 260 l 608 347 l 521 347 l 434 347 l 434 434 l 347 434 l 347 347 l 347 260 l 347 174 l 347 87 l 260 87 l 260 0 l 174 0 l 87 0 l 87 87 l 174 87 l 174 174 l 174 260 l 174 347 l 174 434 l 174 521 l 174 608 l 174 694 l 174 781 l 174 868 l 174 955 l 87 955 l 87 1042 m 868 87 l 868 174 l 955 174 l 955 87 l 868 87 m 955 174 l 955 260 l 955 347 l 955 434 l 1042 434 l 1042 347 l 1042 260 l 1042 174 l 955 174 m 955 434 l 868 434 l 868 521 l 955 521 l 955 434 m 87 87 l 0 87 l 0 174 l 0 260 l 0 347 l 87 347 l 87 260 l 87 174 l 87 87 m 87 955 l 87 868 l 0 868 l 0 955 l 87 955 m 347 955 l 347 868 l 347 781 l 347 694 l 347 608 l 347 521 l 434 521 l 521 521 l 521 608 l 608 608 l 608 694 l 608 781 l 608 868 l 608 955 l 521 955 l 434 955 l 347 955 z "},"S":{"ha":694,"x_min":0,"x_max":608,"o":"m 87 1042 l 174 1042 l 260 1042 l 347 1042 l 434 1042 l 521 1042 l 521 955 l 608 955 l 608 868 l 608 781 l 521 781 l 521 868 l 434 868 l 434 955 l 347 955 l 260 955 l 174 955 l 174 868 l 174 781 l 174 694 l 174 608 l 260 608 l 347 608 l 434 608 l 434 521 l 521 521 l 521 434 l 608 434 l 608 347 l 608 260 l 608 174 l 608 87 l 521 87 l 521 0 l 434 0 l 347 0 l 260 0 l 174 0 l 87 0 l 87 87 l 0 87 l 0 174 l 0 260 l 87 260 l 87 174 l 174 174 l 174 87 l 260 87 l 347 87 l 347 174 l 434 174 l 434 260 l 434 347 l 434 434 l 347 434 l 260 434 l 174 434 l 174 521 l 87 521 l 87 608 l 0 608 l 0 694 l 0 781 l 0 868 l 0 955 l 87 955 l 87 1042 m 521 781 l 521 694 l 434 694 l 347 694 l 347 781 l 434 781 l 521 781 m 347 781 l 260 781 l 260 868 l 347 868 l 347 781 m 87 260 l 87 347 l 174 347 l 260 347 l 260 260 l 174 260 l 87 260 z "},"T":{"ha":955,"x_min":0,"x_max":868,"o":"m 87 1042 l 174 1042 l 260 1042 l 347 1042 l 434 1042 l 434 955 l 521 955 l 608 955 l 694 955 l 694 1042 l 781 1042 l 868 1042 l 868 955 l 781 955 l 781 868 l 694 868 l 608 868 l 521 868 l 521 781 l 521 694 l 521 608 l 521 521 l 521 434 l 521 347 l 521 260 l 521 174 l 521 87 l 608 87 l 608 0 l 521 0 l 434 0 l 434 87 l 347 87 l 347 174 l 347 260 l 347 347 l 347 434 l 347 521 l 347 608 l 347 694 l 347 781 l 347 868 l 347 955 l 260 955 l 174 955 l 174 868 l 87 868 l 87 781 l 87 694 l 0 694 l 0 781 l 0 868 l 0 955 l 87 955 l 87 1042 m 608 87 l 608 174 l 694 174 l 694 87 l 608 87 m 694 174 l 694 260 l 694 347 l 694 434 l 781 434 l 781 347 l 781 260 l 781 174 l 694 174 m 694 434 l 608 434 l 608 521 l 694 521 l 694 434 m 87 694 l 174 694 l 174 608 l 87 608 l 87 694 m 174 694 l 174 781 l 260 781 l 260 694 l 174 694 z "},"U":{"ha":1128,"x_min":0,"x_max":1042,"o":"m 87 1042 l 174 1042 l 260 1042 l 260 955 l 347 955 l 347 868 l 347 781 l 347 694 l 347 608 l 347 521 l 347 434 l 347 347 l 347 260 l 347 174 l 434 174 l 434 87 l 521 87 l 521 174 l 608 174 l 608 260 l 608 347 l 608 434 l 608 521 l 608 608 l 608 694 l 608 781 l 608 868 l 608 955 l 694 955 l 694 1042 l 781 1042 l 868 1042 l 955 1042 l 955 955 l 868 955 l 781 955 l 781 868 l 781 781 l 781 694 l 781 608 l 781 521 l 781 434 l 781 347 l 781 260 l 781 174 l 781 87 l 868 87 l 868 0 l 781 0 l 694 0 l 694 87 l 608 87 l 608 0 l 521 0 l 434 0 l 347 0 l 347 87 l 260 87 l 260 174 l 174 174 l 174 260 l 174 347 l 174 434 l 174 521 l 174 608 l 174 694 l 174 781 l 174 868 l 174 955 l 87 955 l 87 1042 m 868 87 l 868 174 l 955 174 l 955 87 l 868 87 m 955 174 l 955 260 l 955 347 l 955 434 l 1042 434 l 1042 347 l 1042 260 l 1042 174 l 955 174 m 955 434 l 868 434 l 868 521 l 955 521 l 955 434 m 87 955 l 87 868 l 87 781 l 87 694 l 0 694 l 0 781 l 0 868 l 0 955 l 87 955 z "},"V":{"ha":1042,"x_min":0,"x_max":955,"o":"m 87 1042 l 174 1042 l 260 1042 l 347 1042 l 434 1042 l 434 955 l 347 955 l 347 868 l 347 781 l 347 694 l 347 608 l 347 521 l 434 521 l 434 434 l 434 347 l 434 260 l 521 260 l 521 347 l 521 434 l 521 521 l 608 521 l 608 608 l 608 694 l 608 781 l 608 868 l 608 955 l 608 1042 l 694 1042 l 781 1042 l 868 1042 l 868 955 l 781 955 l 781 868 l 781 781 l 781 694 l 781 608 l 781 521 l 694 521 l 694 434 l 694 347 l 694 260 l 608 260 l 608 174 l 608 87 l 521 87 l 521 0 l 434 0 l 434 87 l 347 87 l 347 174 l 347 260 l 260 260 l 260 347 l 260 434 l 260 521 l 174 521 l 174 608 l 174 694 l 174 781 l 174 868 l 174 955 l 87 955 l 87 1042 m 868 955 l 955 955 l 955 868 l 868 868 l 868 955 m 87 955 l 87 868 l 87 781 l 87 694 l 0 694 l 0 781 l 0 868 l 0 955 l 87 955 z "},"W":{"ha":1389,"x_min":0,"x_max":1302,"o":"m 174 1042 l 260 1042 l 347 1042 l 434 1042 l 434 955 l 434 868 l 434 781 l 434 694 l 434 608 l 434 521 l 434 434 l 434 347 l 434 260 l 521 260 l 521 174 l 608 174 l 608 260 l 608 347 l 608 434 l 608 521 l 608 608 l 608 694 l 608 781 l 694 781 l 694 868 l 781 868 l 781 781 l 781 694 l 781 608 l 781 521 l 781 434 l 781 347 l 781 260 l 868 260 l 868 174 l 955 174 l 955 260 l 955 347 l 955 434 l 955 521 l 955 608 l 955 694 l 955 781 l 955 868 l 955 955 l 1042 955 l 1042 1042 l 1128 1042 l 1215 1042 l 1215 955 l 1128 955 l 1128 868 l 1128 781 l 1128 694 l 1128 608 l 1128 521 l 1128 434 l 1128 347 l 1128 260 l 1128 174 l 1128 87 l 1215 87 l 1215 0 l 1128 0 l 1042 0 l 1042 87 l 955 87 l 955 0 l 868 0 l 781 0 l 781 87 l 694 87 l 608 87 l 608 0 l 521 0 l 434 0 l 434 87 l 347 87 l 347 174 l 260 174 l 260 260 l 260 347 l 260 434 l 260 521 l 260 608 l 260 694 l 260 781 l 260 868 l 260 955 l 174 955 l 174 1042 m 781 868 l 781 955 l 868 955 l 868 868 l 781 868 m 1215 955 l 1302 955 l 1302 868 l 1215 868 l 1215 955 m 174 955 l 174 868 l 87 868 l 87 955 l 174 955 m 87 868 l 87 781 l 87 694 l 87 608 l 0 608 l 0 694 l 0 781 l 0 868 l 87 868 m 87 608 l 174 608 l 174 521 l 87 521 l 87 608 z "},"X":{"ha":1128,"x_min":0,"x_max":1042,"o":"m 174 1042 l 260 1042 l 347 1042 l 347 955 l 434 955 l 434 868 l 434 781 l 521 781 l 521 694 l 521 608 l 608 608 l 608 521 l 608 434 l 694 434 l 694 347 l 694 260 l 781 260 l 781 174 l 868 174 l 955 174 l 955 87 l 868 87 l 868 0 l 781 0 l 694 0 l 694 87 l 608 87 l 608 174 l 608 260 l 521 260 l 521 347 l 521 434 l 434 434 l 434 521 l 434 608 l 347 608 l 347 694 l 347 781 l 260 781 l 260 868 l 174 868 l 87 868 l 87 955 l 174 955 l 174 1042 m 608 608 l 608 694 l 608 781 l 608 868 l 694 868 l 694 955 l 781 955 l 781 1042 l 868 1042 l 955 1042 l 955 955 l 868 955 l 868 868 l 781 868 l 781 781 l 694 781 l 694 694 l 694 608 l 608 608 m 955 174 l 955 260 l 955 347 l 1042 347 l 1042 260 l 1042 174 l 955 174 m 434 434 l 434 347 l 434 260 l 434 174 l 347 174 l 347 87 l 260 87 l 260 0 l 174 0 l 87 0 l 87 87 l 174 87 l 174 174 l 260 174 l 260 260 l 347 260 l 347 347 l 347 434 l 434 434 m 87 87 l 0 87 l 0 174 l 87 174 l 87 87 m 87 868 l 87 781 l 87 694 l 87 608 l 0 608 l 0 694 l 0 781 l 0 868 l 87 868 m 87 608 l 174 608 l 174 521 l 87 521 l 87 608 z "},"Y":{"ha":1128,"x_min":0,"x_max":1042,"o":"m 174 1042 l 260 1042 l 347 1042 l 347 955 l 434 955 l 434 868 l 434 781 l 434 694 l 434 608 l 521 608 l 608 608 l 608 694 l 694 694 l 694 781 l 694 868 l 694 955 l 781 955 l 781 1042 l 868 1042 l 955 1042 l 955 955 l 868 955 l 868 868 l 868 781 l 868 694 l 868 608 l 868 521 l 868 434 l 868 347 l 868 260 l 868 174 l 868 87 l 868 0 l 781 0 l 781 -87 l 694 -87 l 694 -174 l 608 -174 l 521 -174 l 434 -174 l 347 -174 l 347 -87 l 260 -87 l 260 0 l 260 87 l 347 87 l 347 174 l 434 174 l 434 87 l 434 0 l 434 -87 l 521 -87 l 608 -87 l 608 0 l 694 0 l 694 87 l 694 174 l 694 260 l 694 347 l 694 434 l 694 521 l 608 521 l 608 434 l 521 434 l 434 434 l 434 521 l 347 521 l 347 608 l 260 608 l 260 694 l 260 781 l 260 868 l 260 955 l 174 955 l 174 1042 m 955 955 l 1042 955 l 1042 868 l 955 868 l 955 955 m 434 174 l 434 260 l 521 260 l 521 174 l 434 174 m 521 260 l 521 347 l 608 347 l 608 260 l 521 260 m 174 955 l 174 868 l 87 868 l 87 955 l 174 955 m 87 868 l 87 781 l 87 694 l 87 608 l 0 608 l 0 694 l 0 781 l 0 868 l 87 868 m 87 608 l 174 608 l 174 521 l 87 521 l 87 608 m 174 521 l 260 521 l 260 434 l 174 434 l 174 521 z "},"Z":{"ha":955,"x_min":0,"x_max":868,"o":"m 174 1042 l 260 1042 l 347 1042 l 434 1042 l 521 1042 l 608 1042 l 694 1042 l 781 1042 l 868 1042 l 868 955 l 781 955 l 781 868 l 694 868 l 694 781 l 694 694 l 608 694 l 608 608 l 694 608 l 781 608 l 781 521 l 694 521 l 608 521 l 521 521 l 521 434 l 434 434 l 434 347 l 434 260 l 347 260 l 347 174 l 434 174 l 434 87 l 521 87 l 608 87 l 694 87 l 694 174 l 781 174 l 781 260 l 781 347 l 868 347 l 868 260 l 868 174 l 868 87 l 781 87 l 781 0 l 694 0 l 608 0 l 521 0 l 434 0 l 347 0 l 347 87 l 260 87 l 174 87 l 174 174 l 87 174 l 87 260 l 174 260 l 260 260 l 260 347 l 260 434 l 347 434 l 347 521 l 260 521 l 174 521 l 174 608 l 260 608 l 347 608 l 434 608 l 434 694 l 521 694 l 521 781 l 521 868 l 608 868 l 608 955 l 521 955 l 434 955 l 347 955 l 260 955 l 174 955 l 174 1042 m 781 347 l 694 347 l 694 434 l 781 434 l 781 347 m 174 87 l 174 0 l 87 0 l 87 87 l 174 87 m 87 87 l 0 87 l 0 174 l 87 174 l 87 87 m 174 955 l 174 868 l 87 868 l 87 955 l 174 955 m 87 868 l 87 781 l 87 694 l 0 694 l 0 781 l 0 868 l 87 868 z "},"[":{"ha":347,"x_min":0,"x_max":260,"o":"m 0 1042 l 87 1042 l 174 1042 l 260 1042 l 260 955 l 174 955 l 174 868 l 174 781 l 174 694 l 174 608 l 174 521 l 174 434 l 174 347 l 174 260 l 174 174 l 174 87 l 260 87 l 260 0 l 174 0 l 87 0 l 0 0 l 0 87 l 0 174 l 0 260 l 0 347 l 0 434 l 0 521 l 0 608 l 0 694 l 0 781 l 0 868 l 0 955 l 0 1042 z "},"\\":{"ha":608,"x_min":0,"x_max":521,"o":"m 0 1042 l 87 1042 l 87 955 l 87 868 l 174 868 l 174 781 l 174 694 l 260 694 l 260 608 l 260 521 l 347 521 l 347 434 l 347 347 l 434 347 l 434 260 l 434 174 l 521 174 l 521 87 l 521 0 l 434 0 l 434 87 l 347 87 l 347 174 l 347 260 l 260 260 l 260 347 l 260 434 l 174 434 l 174 521 l 174 608 l 87 608 l 87 694 l 87 781 l 0 781 l 0 868 l 0 955 l 0 1042 z "},"]":{"ha":347,"x_min":0,"x_max":260,"o":"m 0 1042 l 87 1042 l 174 1042 l 260 1042 l 260 955 l 260 868 l 260 781 l 260 694 l 260 608 l 260 521 l 260 434 l 260 347 l 260 260 l 260 174 l 260 87 l 260 0 l 174 0 l 87 0 l 0 0 l 0 87 l 87 87 l 87 174 l 87 260 l 87 347 l 87 434 l 87 521 l 87 608 l 87 694 l 87 781 l 87 868 l 87 955 l 0 955 l 0 1042 z "},"^":{"ha":347,"x_min":0,"x_max":260,"o":"m 87 1042 l 174 1042 l 174 955 l 87 955 l 87 1042 m 174 955 l 260 955 l 260 868 l 174 868 l 174 955 m 87 955 l 87 868 l 0 868 l 0 955 l 87 955 z "},"_":{"ha":608,"x_min":0,"x_max":521,"o":"m 0 0 l 87 0 l 174 0 l 260 0 l 347 0 l 434 0 l 521 0 l 521 -87 l 434 -87 l 347 -87 l 260 -87 l 174 -87 l 87 -87 l 0 -87 l 0 0 z "},"`":{"ha":347,"x_min":0,"x_max":260,"o":"m 0 1042 l 87 1042 l 174 1042 l 174 955 l 260 955 l 260 868 l 260 781 l 174 781 l 174 868 l 87 868 l 87 955 l 0 955 l 0 1042 z "},"a":{"ha":694,"x_min":0,"x_max":608,"o":"m 87 608 l 174 608 l 260 608 l 347 608 l 434 608 l 434 521 l 521 521 l 521 434 l 521 347 l 521 260 l 521 174 l 521 87 l 608 87 l 608 0 l 521 0 l 434 0 l 434 87 l 347 87 l 347 174 l 347 260 l 260 260 l 174 260 l 174 174 l 174 87 l 260 87 l 347 87 l 347 0 l 260 0 l 174 0 l 87 0 l 87 87 l 0 87 l 0 174 l 0 260 l 87 260 l 87 347 l 174 347 l 260 347 l 347 347 l 347 434 l 347 521 l 260 521 l 174 521 l 174 434 l 87 434 l 0 434 l 0 521 l 87 521 l 87 608 z "},"b":{"ha":694,"x_min":0,"x_max":608,"o":"m 0 1042 l 87 1042 l 174 1042 l 174 955 l 260 955 l 260 868 l 260 781 l 260 694 l 260 608 l 260 521 l 347 521 l 347 434 l 260 434 l 260 347 l 260 260 l 260 174 l 347 174 l 347 87 l 260 87 l 174 87 l 174 0 l 87 0 l 0 0 l 0 87 l 87 87 l 87 174 l 87 260 l 87 347 l 87 434 l 87 521 l 87 608 l 87 694 l 87 781 l 87 868 l 87 955 l 0 955 l 0 1042 m 347 521 l 347 608 l 434 608 l 521 608 l 521 521 l 608 521 l 608 434 l 608 347 l 608 260 l 608 174 l 608 87 l 521 87 l 521 0 l 434 0 l 347 0 l 347 87 l 434 87 l 434 174 l 434 260 l 434 347 l 434 434 l 434 521 l 347 521 z "},"c":{"ha":608,"x_min":0,"x_max":521,"o":"m 87 608 l 174 608 l 260 608 l 347 608 l 434 608 l 434 521 l 521 521 l 521 434 l 434 434 l 347 434 l 347 521 l 260 521 l 174 521 l 174 434 l 174 347 l 174 260 l 174 174 l 174 87 l 260 87 l 347 87 l 347 174 l 434 174 l 521 174 l 521 87 l 434 87 l 434 0 l 347 0 l 260 0 l 174 0 l 87 0 l 87 87 l 0 87 l 0 174 l 0 260 l 0 347 l 0 434 l 0 521 l 87 521 l 87 608 z "},"d":{"ha":694,"x_min":0,"x_max":608,"o":"m 434 1042 l 521 1042 l 608 1042 l 608 955 l 521 955 l 521 868 l 521 781 l 521 694 l 521 608 l 521 521 l 521 434 l 521 347 l 521 260 l 521 174 l 521 87 l 608 87 l 608 0 l 521 0 l 434 0 l 434 87 l 347 87 l 260 87 l 260 174 l 347 174 l 347 260 l 347 347 l 347 434 l 260 434 l 260 521 l 347 521 l 347 608 l 347 694 l 347 781 l 347 868 l 347 955 l 434 955 l 434 1042 m 260 87 l 260 0 l 174 0 l 87 0 l 87 87 l 0 87 l 0 174 l 0 260 l 0 347 l 0 434 l 0 521 l 87 521 l 87 608 l 174 608 l 260 608 l 260 521 l 174 521 l 174 434 l 174 347 l 174 260 l 174 174 l 174 87 l 260 87 z "},"e":{"ha":608,"x_min":0,"x_max":521,"o":"m 87 608 l 174 608 l 260 608 l 347 608 l 434 608 l 434 521 l 521 521 l 521 434 l 521 347 l 521 260 l 434 260 l 347 260 l 260 260 l 174 260 l 174 174 l 174 87 l 260 87 l 347 87 l 434 87 l 434 0 l 347 0 l 260 0 l 174 0 l 87 0 l 87 87 l 0 87 l 0 174 l 0 260 l 0 347 l 0 434 l 0 521 l 87 521 l 87 608 m 434 87 l 434 174 l 521 174 l 521 87 l 434 87 m 174 521 l 174 434 l 174 347 l 260 347 l 347 347 l 434 347 l 434 434 l 347 434 l 347 521 l 260 521 l 174 521 z "},"f":{"ha":608,"x_min":0,"x_max":521,"o":"m 174 1042 l 260 1042 l 347 1042 l 434 1042 l 434 955 l 521 955 l 521 868 l 521 781 l 434 781 l 434 868 l 347 868 l 347 955 l 260 955 l 260 868 l 260 781 l 260 694 l 260 608 l 347 608 l 434 608 l 434 521 l 347 521 l 260 521 l 260 434 l 260 347 l 260 260 l 260 174 l 260 87 l 347 87 l 347 0 l 260 0 l 174 0 l 87 0 l 0 0 l 0 87 l 87 87 l 87 174 l 87 260 l 87 347 l 87 434 l 87 521 l 0 521 l 0 608 l 87 608 l 87 694 l 87 781 l 87 868 l 87 955 l 174 955 l 174 1042 z "},"g":{"ha":694,"x_min":0,"x_max":608,"o":"m 87 608 l 174 608 l 260 608 l 347 608 l 347 521 l 434 521 l 434 608 l 521 608 l 608 608 l 608 521 l 521 521 l 521 434 l 521 347 l 521 260 l 521 174 l 434 174 l 434 87 l 347 87 l 260 87 l 174 87 l 174 0 l 260 0 l 347 0 l 434 0 l 434 -87 l 521 -87 l 521 -174 l 521 -260 l 434 -260 l 434 -347 l 347 -347 l 260 -347 l 174 -347 l 87 -347 l 87 -260 l 0 -260 l 0 -174 l 0 -87 l 87 -87 l 87 0 l 0 0 l 0 87 l 87 87 l 87 174 l 0 174 l 0 260 l 0 347 l 0 434 l 0 521 l 87 521 l 87 608 m 174 521 l 174 434 l 174 347 l 174 260 l 174 174 l 260 174 l 347 174 l 347 260 l 347 347 l 347 434 l 260 434 l 260 521 l 174 521 m 174 -87 l 174 -174 l 174 -260 l 260 -260 l 347 -260 l 347 -174 l 347 -87 l 260 -87 l 174 -87 z "},"h":{"ha":694,"x_min":0,"x_max":608,"o":"m 0 1042 l 87 1042 l 174 1042 l 174 955 l 260 955 l 260 868 l 260 781 l 260 694 l 260 608 l 260 521 l 347 521 l 347 434 l 260 434 l 260 347 l 260 260 l 260 174 l 260 87 l 260 0 l 174 0 l 87 0 l 0 0 l 0 87 l 87 87 l 87 174 l 87 260 l 87 347 l 87 434 l 87 521 l 87 608 l 87 694 l 87 781 l 87 868 l 87 955 l 0 955 l 0 1042 m 347 521 l 347 608 l 434 608 l 521 608 l 521 521 l 608 521 l 608 434 l 608 347 l 608 260 l 608 174 l 608 87 l 608 0 l 521 0 l 434 0 l 434 87 l 434 174 l 434 260 l 434 347 l 434 434 l 434 521 l 347 521 z "},"i":{"ha":434,"x_min":0,"x_max":347,"o":"m 87 868 l 174 868 l 260 868 l 260 781 l 260 694 l 174 694 l 87 694 l 87 781 l 87 868 m 0 608 l 87 608 l 174 608 l 260 608 l 260 521 l 260 434 l 260 347 l 260 260 l 260 174 l 260 87 l 347 87 l 347 0 l 260 0 l 174 0 l 87 0 l 0 0 l 0 87 l 87 87 l 87 174 l 87 260 l 87 347 l 87 434 l 87 521 l 0 521 l 0 608 z "},"j":{"ha":521,"x_min":0,"x_max":434,"o":"m 260 868 l 347 868 l 434 868 l 434 781 l 434 694 l 347 694 l 260 694 l 260 781 l 260 868 m 87 608 l 174 608 l 260 608 l 347 608 l 434 608 l 434 521 l 434 434 l 434 347 l 434 260 l 434 174 l 434 87 l 434 0 l 434 -87 l 434 -174 l 347 -174 l 347 -260 l 260 -260 l 260 -347 l 174 -347 l 87 -347 l 87 -260 l 0 -260 l 0 -174 l 0 -87 l 87 -87 l 87 -174 l 174 -174 l 260 -174 l 260 -87 l 260 0 l 260 87 l 260 174 l 260 260 l 260 347 l 260 434 l 260 521 l 174 521 l 87 521 l 87 608 z "},"k":{"ha":694,"x_min":0,"x_max":608,"o":"m 0 1042 l 87 1042 l 174 1042 l 174 955 l 260 955 l 260 868 l 260 781 l 260 694 l 260 608 l 260 521 l 260 434 l 347 434 l 347 521 l 434 521 l 434 608 l 521 608 l 608 608 l 608 521 l 521 521 l 521 434 l 434 434 l 434 347 l 434 260 l 521 260 l 521 174 l 608 174 l 608 87 l 608 0 l 521 0 l 434 0 l 434 87 l 434 174 l 347 174 l 347 260 l 260 260 l 260 174 l 260 87 l 174 87 l 174 0 l 87 0 l 0 0 l 0 87 l 87 87 l 87 174 l 87 260 l 87 347 l 87 434 l 87 521 l 87 608 l 87 694 l 87 781 l 87 868 l 87 955 l 0 955 l 0 1042 z "},"l":{"ha":434,"x_min":0,"x_max":347,"o":"m 0 1042 l 87 1042 l 174 1042 l 174 955 l 260 955 l 260 868 l 260 781 l 260 694 l 260 608 l 260 521 l 260 434 l 260 347 l 260 260 l 260 174 l 260 87 l 347 87 l 347 0 l 260 0 l 174 0 l 87 0 l 0 0 l 0 87 l 87 87 l 87 174 l 87 260 l 87 347 l 87 434 l 87 521 l 87 608 l 87 694 l 87 781 l 87 868 l 87 955 l 0 955 l 0 1042 z "},"m":{"ha":955,"x_min":0,"x_max":868,"o":"m 0 608 l 87 608 l 174 608 l 174 521 l 260 521 l 260 608 l 347 608 l 434 608 l 434 521 l 521 521 l 521 608 l 608 608 l 694 608 l 694 521 l 781 521 l 781 434 l 781 347 l 781 260 l 781 174 l 781 87 l 868 87 l 868 0 l 781 0 l 694 0 l 608 0 l 608 87 l 608 174 l 608 260 l 608 347 l 608 434 l 521 434 l 521 347 l 521 260 l 521 174 l 521 87 l 434 87 l 434 174 l 347 174 l 347 260 l 347 347 l 347 434 l 260 434 l 260 347 l 260 260 l 260 174 l 260 87 l 260 0 l 174 0 l 87 0 l 0 0 l 0 87 l 87 87 l 87 174 l 87 260 l 87 347 l 87 434 l 87 521 l 0 521 l 0 608 z "},"n":{"ha":694,"x_min":0,"x_max":608,"o":"m 0 608 l 87 608 l 174 608 l 174 521 l 260 521 l 260 608 l 347 608 l 434 608 l 521 608 l 521 521 l 608 521 l 608 434 l 608 347 l 608 260 l 608 174 l 608 87 l 608 0 l 521 0 l 434 0 l 434 87 l 434 174 l 434 260 l 434 347 l 434 434 l 434 521 l 347 521 l 347 434 l 260 434 l 260 347 l 260 260 l 260 174 l 260 87 l 260 0 l 174 0 l 87 0 l 0 0 l 0 87 l 87 87 l 87 174 l 87 260 l 87 347 l 87 434 l 87 521 l 0 521 l 0 608 z "},"o":{"ha":608,"x_min":0,"x_max":521,"o":"m 87 608 l 174 608 l 260 608 l 347 608 l 434 608 l 434 521 l 521 521 l 521 434 l 521 347 l 521 260 l 521 174 l 521 87 l 434 87 l 434 0 l 347 0 l 260 0 l 174 0 l 87 0 l 87 87 l 0 87 l 0 174 l 0 260 l 0 347 l 0 434 l 0 521 l 87 521 l 87 608 m 174 521 l 174 434 l 174 347 l 174 260 l 174 174 l 174 87 l 260 87 l 347 87 l 347 174 l 347 260 l 347 347 l 347 434 l 347 521 l 260 521 l 174 521 z "},"p":{"ha":694,"x_min":0,"x_max":608,"o":"m 0 608 l 87 608 l 174 608 l 174 521 l 260 521 l 260 608 l 347 608 l 434 608 l 521 608 l 521 521 l 608 521 l 608 434 l 608 347 l 608 260 l 608 174 l 608 87 l 521 87 l 521 0 l 434 0 l 347 0 l 347 87 l 434 87 l 434 174 l 434 260 l 434 347 l 434 434 l 434 521 l 347 521 l 347 434 l 260 434 l 260 347 l 260 260 l 260 174 l 347 174 l 347 87 l 260 87 l 260 0 l 260 -87 l 260 -174 l 260 -260 l 174 -260 l 174 -347 l 87 -347 l 0 -347 l 0 -260 l 87 -260 l 87 -174 l 87 -87 l 87 0 l 87 87 l 87 174 l 87 260 l 87 347 l 87 434 l 87 521 l 0 521 l 0 608 z "},"q":{"ha":694,"x_min":0,"x_max":608,"o":"m 87 608 l 174 608 l 260 608 l 347 608 l 347 521 l 434 521 l 434 608 l 521 608 l 608 608 l 608 521 l 521 521 l 521 434 l 521 347 l 521 260 l 521 174 l 521 87 l 521 0 l 521 -87 l 521 -174 l 521 -260 l 608 -260 l 608 -347 l 521 -347 l 434 -347 l 434 -260 l 347 -260 l 347 -174 l 347 -87 l 347 0 l 347 87 l 260 87 l 260 174 l 347 174 l 347 260 l 347 347 l 347 434 l 260 434 l 260 521 l 174 521 l 174 434 l 174 347 l 174 260 l 174 174 l 174 87 l 260 87 l 260 0 l 174 0 l 87 0 l 87 87 l 0 87 l 0 174 l 0 260 l 0 347 l 0 434 l 0 521 l 87 521 l 87 608 z "},"r":{"ha":694,"x_min":0,"x_max":608,"o":"m 0 608 l 87 608 l 174 608 l 174 521 l 260 521 l 260 608 l 347 608 l 434 608 l 521 608 l 521 521 l 608 521 l 608 434 l 608 347 l 521 347 l 521 434 l 434 434 l 434 521 l 347 521 l 347 434 l 260 434 l 260 347 l 260 260 l 260 174 l 260 87 l 260 0 l 174 0 l 87 0 l 0 0 l 0 87 l 87 87 l 87 174 l 87 260 l 87 347 l 87 434 l 87 521 l 0 521 l 0 608 z "},"s":{"ha":608,"x_min":0,"x_max":521,"o":"m 87 608 l 174 608 l 260 608 l 347 608 l 434 608 l 434 521 l 521 521 l 521 434 l 434 434 l 347 434 l 347 521 l 260 521 l 174 521 l 174 434 l 260 434 l 260 347 l 347 347 l 434 347 l 434 260 l 521 260 l 521 174 l 521 87 l 434 87 l 434 0 l 347 0 l 260 0 l 174 0 l 87 0 l 87 87 l 0 87 l 0 174 l 87 174 l 174 174 l 174 87 l 260 87 l 347 87 l 347 174 l 260 174 l 260 260 l 174 260 l 87 260 l 87 347 l 0 347 l 0 434 l 0 521 l 87 521 l 87 608 z "},"t":{"ha":608,"x_min":0,"x_max":521,"o":"m 174 1042 l 260 1042 l 260 955 l 260 868 l 260 781 l 260 694 l 260 608 l 347 608 l 434 608 l 434 521 l 347 521 l 260 521 l 260 434 l 260 347 l 260 260 l 260 174 l 260 87 l 347 87 l 347 174 l 434 174 l 434 260 l 521 260 l 521 174 l 521 87 l 434 87 l 434 0 l 347 0 l 260 0 l 174 0 l 174 87 l 87 87 l 87 174 l 87 260 l 87 347 l 87 434 l 87 521 l 0 521 l 0 608 l 87 608 l 87 694 l 87 781 l 87 868 l 87 955 l 174 955 l 174 1042 z "},"u":{"ha":694,"x_min":0,"x_max":608,"o":"m 0 608 l 87 608 l 174 608 l 174 521 l 174 434 l 174 347 l 174 260 l 174 174 l 174 87 l 260 87 l 260 174 l 347 174 l 347 260 l 347 347 l 347 434 l 347 521 l 347 608 l 434 608 l 521 608 l 608 608 l 608 521 l 521 521 l 521 434 l 521 347 l 521 260 l 521 174 l 521 87 l 608 87 l 608 0 l 521 0 l 434 0 l 434 87 l 347 87 l 347 0 l 260 0 l 174 0 l 87 0 l 87 87 l 0 87 l 0 174 l 0 260 l 0 347 l 0 434 l 0 521 l 0 608 z "},"v":{"ha":694,"x_min":0,"x_max":608,"o":"m 0 608 l 87 608 l 174 608 l 174 521 l 174 434 l 260 434 l 260 347 l 260 260 l 347 260 l 347 347 l 347 434 l 434 434 l 434 521 l 434 608 l 521 608 l 608 608 l 608 521 l 608 434 l 521 434 l 521 347 l 521 260 l 434 260 l 434 174 l 434 87 l 347 87 l 347 0 l 260 0 l 260 87 l 174 87 l 174 174 l 174 260 l 87 260 l 87 347 l 0 347 l 0 434 l 0 521 l 0 608 z "},"w":{"ha":955,"x_min":0,"x_max":868,"o":"m 0 608 l 87 608 l 174 608 l 260 608 l 260 521 l 260 434 l 260 347 l 260 260 l 260 174 l 347 174 l 347 260 l 347 347 l 347 434 l 434 434 l 434 521 l 521 521 l 521 434 l 521 347 l 521 260 l 521 174 l 608 174 l 608 260 l 608 347 l 608 434 l 608 521 l 608 608 l 694 608 l 781 608 l 868 608 l 868 521 l 781 521 l 781 434 l 781 347 l 781 260 l 781 174 l 781 87 l 868 87 l 868 0 l 781 0 l 694 0 l 694 87 l 608 87 l 608 0 l 521 0 l 434 0 l 434 87 l 347 87 l 347 0 l 260 0 l 174 0 l 174 87 l 87 87 l 87 174 l 87 260 l 87 347 l 87 434 l 87 521 l 0 521 l 0 608 z "},"x":{"ha":781,"x_min":0,"x_max":694,"o":"m 87 608 l 174 608 l 260 608 l 260 521 l 347 521 l 347 434 l 434 434 l 434 521 l 521 521 l 521 608 l 608 608 l 694 608 l 694 521 l 608 521 l 608 434 l 521 434 l 521 347 l 434 347 l 434 260 l 521 260 l 521 174 l 608 174 l 694 174 l 694 87 l 608 87 l 608 0 l 521 0 l 434 0 l 434 87 l 347 87 l 347 174 l 260 174 l 260 87 l 174 87 l 174 0 l 87 0 l 0 0 l 0 87 l 87 87 l 87 174 l 174 174 l 174 260 l 260 260 l 260 347 l 174 347 l 174 434 l 87 434 l 0 434 l 0 521 l 87 521 l 87 608 z "},"y":{"ha":781,"x_min":0,"x_max":694,"o":"m 0 608 l 87 608 l 174 608 l 174 521 l 260 521 l 260 434 l 260 347 l 260 260 l 260 174 l 347 174 l 434 174 l 434 260 l 434 347 l 434 434 l 434 521 l 521 521 l 521 608 l 608 608 l 694 608 l 694 521 l 608 521 l 608 434 l 608 347 l 608 260 l 608 174 l 608 87 l 608 0 l 608 -87 l 608 -174 l 608 -260 l 521 -260 l 521 -347 l 434 -347 l 347 -347 l 260 -347 l 174 -347 l 174 -260 l 87 -260 l 87 -174 l 87 -87 l 174 -87 l 174 -174 l 260 -174 l 260 -260 l 347 -260 l 347 -174 l 434 -174 l 434 -87 l 434 0 l 347 0 l 260 0 l 174 0 l 174 87 l 87 87 l 87 174 l 87 260 l 87 347 l 87 434 l 87 521 l 0 521 l 0 608 z "},"z":{"ha":608,"x_min":0,"x_max":521,"o":"m 87 608 l 174 608 l 260 608 l 347 608 l 434 608 l 521 608 l 521 521 l 521 434 l 521 347 l 434 347 l 434 260 l 347 260 l 260 260 l 260 174 l 174 174 l 174 87 l 260 87 l 347 87 l 434 87 l 434 174 l 521 174 l 521 87 l 521 0 l 434 0 l 347 0 l 260 0 l 174 0 l 87 0 l 0 0 l 0 87 l 0 174 l 0 260 l 87 260 l 87 347 l 174 347 l 260 347 l 260 434 l 347 434 l 347 521 l 260 521 l 174 521 l 174 434 l 87 434 l 0 434 l 0 521 l 87 521 l 87 608 z "},"{":{"ha":434,"x_min":0,"x_max":347,"o":"m 174 1042 l 260 1042 l 347 1042 l 347 955 l 260 955 l 260 868 l 260 781 l 260 694 l 260 608 l 174 608 l 174 521 l 260 521 l 260 434 l 260 347 l 260 260 l 260 174 l 260 87 l 347 87 l 347 0 l 260 0 l 174 0 l 174 87 l 87 87 l 87 174 l 87 260 l 87 347 l 87 434 l 87 521 l 0 521 l 0 608 l 87 608 l 87 694 l 87 781 l 87 868 l 87 955 l 174 955 l 174 1042 z "},"|":{"ha":260,"x_min":0,"x_max":174,"o":"m 0 1042 l 87 1042 l 174 1042 l 174 955 l 174 868 l 174 781 l 174 694 l 174 608 l 174 521 l 174 434 l 174 347 l 174 260 l 174 174 l 174 87 l 174 0 l 87 0 l 0 0 l 0 87 l 0 174 l 0 260 l 0 347 l 0 434 l 0 521 l 0 608 l 0 694 l 0 781 l 0 868 l 0 955 l 0 1042 z "},"}":{"ha":434,"x_min":0,"x_max":347,"o":"m 0 1042 l 87 1042 l 174 1042 l 174 955 l 260 955 l 260 868 l 260 781 l 260 694 l 260 608 l 347 608 l 347 521 l 260 521 l 260 434 l 260 347 l 260 260 l 260 174 l 260 87 l 174 87 l 174 0 l 87 0 l 0 0 l 0 87 l 87 87 l 87 174 l 87 260 l 87 347 l 87 434 l 87 521 l 174 521 l 174 608 l 87 608 l 87 694 l 87 781 l 87 868 l 87 955 l 0 955 l 0 1042 z "},"~":{"ha":781,"x_min":0,"x_max":694,"o":"m 87 608 l 174 608 l 260 608 l 347 608 l 347 521 l 434 521 l 434 434 l 521 434 l 521 521 l 608 521 l 694 521 l 694 434 l 608 434 l 608 347 l 521 347 l 434 347 l 347 347 l 347 434 l 260 434 l 260 521 l 174 521 l 174 434 l 87 434 l 0 434 l 0 521 l 87 521 l 87 608 z "},"":{"ha":260,"x_min":0,"x_max":174,"o":"m 0 1042 l 87 1042 l 174 1042 l 174 955 l 174 868 l 87 868 l 0 868 l 0 955 l 0 1042 m 0 694 l 87 694 l 174 694 l 174 608 l 174 521 l 174 434 l 174 347 l 174 260 l 174 174 l 174 87 l 174 0 l 87 0 l 0 0 l 0 87 l 0 174 l 0 260 l 0 347 l 0 434 l 0 521 l 0 608 l 0 694 z "},"":{"ha":694,"x_min":0,"x_max":608,"o":"m 260 694 l 347 694 l 347 608 l 434 608 l 521 608 l 521 521 l 608 521 l 608 434 l 521 434 l 434 434 l 434 521 l 347 521 l 347 434 l 347 347 l 347 260 l 347 174 l 347 87 l 434 87 l 434 174 l 521 174 l 608 174 l 608 87 l 521 87 l 521 0 l 434 0 l 347 0 l 347 -87 l 260 -87 l 260 0 l 174 0 l 87 0 l 87 87 l 0 87 l 0 174 l 0 260 l 0 347 l 0 434 l 0 521 l 87 521 l 87 608 l 174 608 l 260 608 l 260 694 m 174 521 l 174 434 l 174 347 l 174 260 l 174 174 l 174 87 l 260 87 l 260 174 l 260 260 l 260 347 l 260 434 l 260 521 l 174 521 z "},"":{"ha":868,"x_min":0,"x_max":781,"o":"m 260 1042 l 347 1042 l 434 1042 l 521 1042 l 608 1042 l 608 955 l 694 955 l 694 1042 l 781 1042 l 781 955 l 781 868 l 694 868 l 694 781 l 608 781 l 608 868 l 521 868 l 521 955 l 434 955 l 434 868 l 347 868 l 347 781 l 434 781 l 434 694 l 434 608 l 521 608 l 608 608 l 694 608 l 694 521 l 608 521 l 521 521 l 434 521 l 434 434 l 434 347 l 347 347 l 347 260 l 347 174 l 434 174 l 434 87 l 521 87 l 608 87 l 608 174 l 694 174 l 781 174 l 781 87 l 694 87 l 694 0 l 608 0 l 521 0 l 434 0 l 347 0 l 347 87 l 260 87 l 174 87 l 174 174 l 87 174 l 87 260 l 174 260 l 174 347 l 174 434 l 260 434 l 260 521 l 174 521 l 174 608 l 260 608 l 260 694 l 174 694 l 174 781 l 174 868 l 174 955 l 260 955 l 260 1042 m 174 87 l 174 0 l 87 0 l 87 87 l 174 87 m 87 87 l 0 87 l 0 174 l 87 174 l 87 87 z "},"":{"ha":955,"x_min":0,"x_max":868,"o":"m 347 1042 l 434 1042 l 521 1042 l 608 1042 l 694 1042 l 781 1042 l 781 955 l 868 955 l 868 868 l 868 781 l 781 781 l 781 868 l 694 868 l 694 955 l 608 955 l 521 955 l 434 955 l 434 868 l 347 868 l 347 781 l 347 694 l 434 694 l 521 694 l 608 694 l 608 608 l 521 608 l 434 608 l 347 608 l 347 521 l 347 434 l 434 434 l 521 434 l 608 434 l 608 347 l 521 347 l 434 347 l 347 347 l 347 260 l 347 174 l 434 174 l 434 87 l 521 87 l 608 87 l 694 87 l 694 174 l 781 174 l 781 260 l 868 260 l 868 174 l 868 87 l 781 87 l 781 0 l 694 0 l 608 0 l 521 0 l 434 0 l 347 0 l 347 87 l 260 87 l 260 174 l 174 174 l 174 260 l 174 347 l 87 347 l 87 434 l 174 434 l 174 521 l 174 608 l 87 608 l 87 694 l 174 694 l 174 781 l 174 868 l 260 868 l 260 955 l 347 955 l 347 1042 m 781 781 l 781 694 l 694 694 l 694 781 l 781 781 m 87 347 l 87 260 l 0 260 l 0 347 l 87 347 m 87 608 l 87 521 l 0 521 l 0 608 l 87 608 z "},"":{"ha":955,"x_min":0,"x_max":868,"o":"m 0 1042 l 87 1042 l 174 1042 l 174 955 l 260 955 l 260 868 l 347 868 l 347 781 l 347 694 l 434 694 l 521 694 l 521 781 l 521 868 l 608 868 l 608 955 l 694 955 l 694 1042 l 781 1042 l 868 1042 l 868 955 l 781 955 l 781 868 l 694 868 l 694 781 l 694 694 l 608 694 l 608 608 l 694 608 l 781 608 l 781 521 l 694 521 l 608 521 l 521 521 l 521 434 l 608 434 l 694 434 l 781 434 l 781 347 l 694 347 l 608 347 l 521 347 l 521 260 l 521 174 l 521 87 l 521 0 l 434 0 l 347 0 l 347 87 l 347 174 l 347 260 l 347 347 l 260 347 l 174 347 l 87 347 l 87 434 l 174 434 l 260 434 l 347 434 l 347 521 l 260 521 l 174 521 l 87 521 l 87 608 l 174 608 l 260 608 l 260 694 l 174 694 l 174 781 l 174 868 l 87 868 l 87 955 l 0 955 l 0 1042 z "},"":{"ha":694,"x_min":0,"x_max":608,"o":"m 87 1042 l 174 1042 l 260 1042 l 347 1042 l 434 1042 l 521 1042 l 521 955 l 608 955 l 608 868 l 608 781 l 521 781 l 521 868 l 434 868 l 434 955 l 347 955 l 260 955 l 174 955 l 174 868 l 174 781 l 260 781 l 260 694 l 347 694 l 434 694 l 434 608 l 521 608 l 521 521 l 608 521 l 608 434 l 521 434 l 434 434 l 434 521 l 347 521 l 347 608 l 260 608 l 174 608 l 174 694 l 87 694 l 87 781 l 0 781 l 0 868 l 0 955 l 87 955 l 87 1042 m 434 434 l 434 347 l 521 347 l 521 260 l 608 260 l 608 174 l 608 87 l 521 87 l 521 0 l 434 0 l 347 0 l 260 0 l 174 0 l 87 0 l 87 87 l 0 87 l 0 174 l 0 260 l 87 260 l 87 174 l 174 174 l 174 87 l 260 87 l 347 87 l 434 87 l 434 174 l 434 260 l 347 260 l 347 347 l 260 347 l 174 347 l 174 434 l 87 434 l 87 521 l 0 521 l 0 608 l 87 608 l 174 608 l 174 521 l 260 521 l 260 434 l 347 434 l 434 434 z "},"":{"ha":781,"x_min":0,"x_max":694,"o":"m 174 694 l 260 694 l 347 694 l 434 694 l 521 694 l 521 608 l 434 608 l 347 608 l 260 608 l 174 608 l 174 694 m 521 608 l 608 608 l 608 521 l 521 521 l 521 608 m 608 521 l 694 521 l 694 434 l 694 347 l 694 260 l 694 174 l 608 174 l 608 260 l 608 347 l 608 434 l 608 521 m 608 174 l 608 87 l 521 87 l 521 174 l 608 174 m 521 87 l 521 0 l 434 0 l 347 0 l 260 0 l 174 0 l 174 87 l 260 87 l 347 87 l 434 87 l 521 87 m 174 87 l 87 87 l 87 174 l 174 174 l 174 87 m 87 174 l 0 174 l 0 260 l 0 347 l 0 434 l 0 521 l 87 521 l 87 434 l 87 347 l 87 260 l 87 174 m 87 521 l 87 608 l 174 608 l 174 521 l 87 521 m 521 174 l 434 174 l 347 174 l 260 174 l 260 260 l 174 260 l 174 347 l 174 434 l 260 434 l 260 521 l 347 521 l 434 521 l 521 521 l 521 434 l 434 434 l 347 434 l 347 347 l 347 260 l 434 260 l 521 260 l 521 174 z "},"":{"ha":434,"x_min":0,"x_max":347,"o":"m 0 1042 l 87 1042 l 174 1042 l 260 1042 l 260 955 l 174 955 l 87 955 l 0 955 l 0 1042 m 260 955 l 347 955 l 347 868 l 347 781 l 347 694 l 260 694 l 260 781 l 174 781 l 87 781 l 87 868 l 174 868 l 260 868 l 260 955 m 260 694 l 260 608 l 174 608 l 87 608 l 87 694 l 174 694 l 260 694 m 87 694 l 0 694 l 0 781 l 87 781 l 87 694 m 0 521 l 87 521 l 174 521 l 260 521 l 347 521 l 347 434 l 260 434 l 174 434 l 87 434 l 0 434 l 0 521 z "},"":{"ha":781,"x_min":0,"x_max":694,"o":"m 260 608 l 347 608 l 347 521 l 347 434 l 260 434 l 260 347 l 174 347 l 174 260 l 260 260 l 260 174 l 347 174 l 347 87 l 347 0 l 260 0 l 260 87 l 174 87 l 174 174 l 87 174 l 87 260 l 0 260 l 0 347 l 87 347 l 87 434 l 174 434 l 174 521 l 260 521 l 260 608 m 608 608 l 694 608 l 694 521 l 694 434 l 608 434 l 608 347 l 521 347 l 521 260 l 608 260 l 608 174 l 694 174 l 694 87 l 694 0 l 608 0 l 608 87 l 521 87 l 521 174 l 434 174 l 434 260 l 347 260 l 347 347 l 434 347 l 434 434 l 521 434 l 521 521 l 608 521 l 608 608 z "},"":{"ha":608,"x_min":0,"x_max":521,"o":"m 0 434 l 87 434 l 174 434 l 260 434 l 347 434 l 434 434 l 521 434 l 521 347 l 521 260 l 521 174 l 521 87 l 434 87 l 347 87 l 347 174 l 347 260 l 260 260 l 174 260 l 87 260 l 0 260 l 0 347 l 0 434 z "},"":{"ha":608,"x_min":0,"x_max":608,"o":"m 0 434 l 87 434 l 174 434 l 260 434 l 347 434 l 434 434 l 521 434 l 608 434 l 608 347 l 608 260 l 521 260 l 434 260 l 347 260 l 260 260 l 174 260 l 87 260 l 0 260 l 0 347 l 0 434 z "},"":{"ha":781,"x_min":0,"x_max":694,"o":"m 174 694 l 260 694 l 347 694 l 434 694 l 521 694 l 521 608 l 434 608 l 347 608 l 260 608 l 174 608 l 174 694 m 521 608 l 608 608 l 608 521 l 521 521 l 521 608 m 608 521 l 694 521 l 694 434 l 694 347 l 694 260 l 694 174 l 608 174 l 608 260 l 608 347 l 608 434 l 608 521 m 608 174 l 608 87 l 521 87 l 521 174 l 608 174 m 521 87 l 521 0 l 434 0 l 347 0 l 260 0 l 174 0 l 174 87 l 260 87 l 347 87 l 434 87 l 521 87 m 174 87 l 87 87 l 87 174 l 174 174 l 174 87 m 87 174 l 0 174 l 0 260 l 0 347 l 0 434 l 0 521 l 87 521 l 87 434 l 87 347 l 87 260 l 87 174 m 87 521 l 87 608 l 174 608 l 174 521 l 87 521 m 174 521 l 260 521 l 347 521 l 434 521 l 434 434 l 347 434 l 260 434 l 260 347 l 347 347 l 434 347 l 434 260 l 347 260 l 260 260 l 260 174 l 174 174 l 174 260 l 174 347 l 174 434 l 174 521 m 434 434 l 521 434 l 521 347 l 434 347 l 434 434 m 434 260 l 521 260 l 521 174 l 434 174 l 434 260 z "},"":{"ha":608,"x_min":0,"x_max":521,"o":"m 0 1042 l 87 1042 l 174 1042 l 260 1042 l 347 1042 l 434 1042 l 521 1042 l 521 955 l 434 955 l 347 955 l 260 955 l 174 955 l 87 955 l 0 955 l 0 1042 z "},"":{"ha":434,"x_min":0,"x_max":347,"o":"m 87 1042 l 174 1042 l 260 1042 l 260 955 l 174 955 l 87 955 l 87 1042 m 260 955 l 347 955 l 347 868 l 347 781 l 260 781 l 260 868 l 260 955 m 260 781 l 260 694 l 174 694 l 87 694 l 87 781 l 174 781 l 260 781 m 87 781 l 0 781 l 0 868 l 0 955 l 87 955 l 87 868 l 87 781 z "},"":{"ha":694,"x_min":0,"x_max":608,"o":"m 260 694 l 347 694 l 347 608 l 347 521 l 347 434 l 434 434 l 521 434 l 608 434 l 608 347 l 521 347 l 434 347 l 347 347 l 347 260 l 347 174 l 260 174 l 260 260 l 260 347 l 174 347 l 87 347 l 0 347 l 0 434 l 87 434 l 174 434 l 260 434 l 260 521 l 260 608 l 260 694 m 0 87 l 87 87 l 174 87 l 260 87 l 347 87 l 434 87 l 521 87 l 608 87 l 608 0 l 521 0 l 434 0 l 347 0 l 260 0 l 174 0 l 87 0 l 0 0 l 0 87 z "},"":{"ha":347,"x_min":0,"x_max":260,"o":"m 87 1042 l 174 1042 l 174 955 l 87 955 l 87 1042 m 174 955 l 260 955 l 260 868 l 260 781 l 174 781 l 174 868 l 174 955 m 174 781 l 174 694 l 260 694 l 260 608 l 174 608 l 87 608 l 0 608 l 0 694 l 87 694 l 87 781 l 174 781 m 87 955 l 87 868 l 0 868 l 0 955 l 87 955 z "},"":{"ha":347,"x_min":0,"x_max":260,"o":"m 0 1042 l 87 1042 l 174 1042 l 174 955 l 87 955 l 0 955 l 0 1042 m 174 955 l 260 955 l 260 868 l 174 868 l 174 955 m 174 868 l 174 781 l 87 781 l 87 868 l 174 868 m 174 781 l 260 781 l 260 694 l 174 694 l 174 781 m 174 694 l 174 608 l 87 608 l 0 608 l 0 694 l 87 694 l 174 694 z "},"":{"ha":694,"x_min":0,"x_max":608,"o":"m 87 1042 l 174 1042 l 260 1042 l 347 1042 l 434 1042 l 521 1042 l 608 1042 l 608 955 l 608 868 l 608 781 l 608 694 l 608 608 l 608 521 l 608 434 l 608 347 l 608 260 l 608 174 l 608 87 l 608 0 l 521 0 l 521 87 l 521 174 l 521 260 l 521 347 l 521 434 l 521 521 l 521 608 l 521 694 l 521 781 l 521 868 l 521 955 l 434 955 l 434 868 l 434 781 l 434 694 l 434 608 l 434 521 l 434 434 l 434 347 l 434 260 l 434 174 l 434 87 l 434 0 l 347 0 l 260 0 l 260 87 l 260 174 l 260 260 l 260 347 l 260 434 l 260 521 l 174 521 l 87 521 l 87 608 l 0 608 l 0 694 l 0 781 l 0 868 l 0 955 l 87 955 l 87 1042 z "},"":{"ha":260,"x_min":0,"x_max":174,"o":"m 0 608 l 87 608 l 174 608 l 174 521 l 174 434 l 87 434 l 0 434 l 0 521 l 0 608 z "},"":{"ha":347,"x_min":0,"x_max":260,"o":"m 87 1042 l 174 1042 l 174 955 l 174 868 l 174 781 l 174 694 l 260 694 l 260 608 l 174 608 l 87 608 l 0 608 l 0 694 l 87 694 l 87 781 l 87 868 l 0 868 l 0 955 l 87 955 l 87 1042 z "},"":{"ha":434,"x_min":0,"x_max":347,"o":"m 87 1042 l 174 1042 l 260 1042 l 260 955 l 174 955 l 87 955 l 87 1042 m 260 955 l 347 955 l 347 868 l 347 781 l 260 781 l 260 868 l 260 955 m 260 781 l 260 694 l 174 694 l 87 694 l 87 781 l 174 781 l 260 781 m 87 781 l 0 781 l 0 868 l 0 955 l 87 955 l 87 868 l 87 781 m 0 521 l 87 521 l 174 521 l 260 521 l 347 521 l 347 434 l 260 434 l 174 434 l 87 434 l 0 434 l 0 521 z "},"":{"ha":781,"x_min":0,"x_max":694,"o":"m 0 608 l 87 608 l 87 521 l 174 521 l 174 434 l 260 434 l 260 347 l 347 347 l 347 260 l 260 260 l 260 174 l 174 174 l 174 87 l 87 87 l 87 0 l 0 0 l 0 87 l 0 174 l 87 174 l 87 260 l 174 260 l 174 347 l 87 347 l 87 434 l 0 434 l 0 521 l 0 608 m 347 608 l 434 608 l 434 521 l 521 521 l 521 434 l 608 434 l 608 347 l 694 347 l 694 260 l 608 260 l 608 174 l 521 174 l 521 87 l 434 87 l 434 0 l 347 0 l 347 87 l 347 174 l 434 174 l 434 260 l 521 260 l 521 347 l 434 347 l 434 434 l 347 434 l 347 521 l 347 608 z "},"":{"ha":608,"x_min":0,"x_max":521,"o":"m 174 1042 l 260 1042 l 347 1042 l 347 955 l 347 868 l 260 868 l 174 868 l 174 955 l 174 1042 m 174 694 l 260 694 l 347 694 l 347 608 l 347 521 l 347 434 l 260 434 l 260 347 l 174 347 l 174 260 l 174 174 l 174 87 l 260 87 l 347 87 l 347 174 l 347 260 l 434 260 l 434 347 l 521 347 l 521 260 l 521 174 l 521 87 l 434 87 l 434 0 l 347 0 l 260 0 l 174 0 l 87 0 l 87 87 l 0 87 l 0 174 l 0 260 l 0 347 l 87 347 l 87 434 l 174 434 l 174 521 l 174 608 l 174 694 z "},"":{"ha":608,"x_min":0,"x_max":521,"o":"m 0 608 l 87 608 l 87 521 l 174 521 l 174 434 l 260 434 l 347 434 l 347 521 l 434 521 l 434 608 l 521 608 l 521 521 l 521 434 l 434 434 l 434 347 l 347 347 l 347 260 l 434 260 l 434 174 l 521 174 l 521 87 l 521 0 l 434 0 l 434 87 l 347 87 l 347 174 l 260 174 l 174 174 l 174 87 l 87 87 l 87 0 l 0 0 l 0 87 l 0 174 l 87 174 l 87 260 l 174 260 l 174 347 l 87 347 l 87 434 l 0 434 l 0 521 l 0 608 z "},"":{"ha":608,"x_min":0,"x_max":521,"o":"m 174 694 l 260 694 l 347 694 l 347 608 l 347 521 l 260 521 l 174 521 l 174 608 l 174 694 m 0 434 l 87 434 l 174 434 l 260 434 l 347 434 l 434 434 l 521 434 l 521 347 l 521 260 l 434 260 l 347 260 l 260 260 l 174 260 l 87 260 l 0 260 l 0 347 l 0 434 m 174 174 l 260 174 l 347 174 l 347 87 l 347 0 l 260 0 l 174 0 l 174 87 l 174 174 z "},"":{"ha":868,"x_min":0,"x_max":781,"o":"m 0 694 l 87 694 l 87 608 l 0 608 l 0 694 m 87 608 l 174 608 l 174 521 l 87 521 l 87 608 m 174 521 l 260 521 l 260 608 l 347 608 l 434 608 l 521 608 l 521 521 l 608 521 l 608 434 l 694 434 l 694 347 l 694 260 l 694 174 l 608 174 l 608 87 l 521 87 l 521 0 l 434 0 l 347 0 l 260 0 l 260 87 l 174 87 l 174 174 l 87 174 l 87 260 l 87 347 l 87 434 l 174 434 l 174 521 m 608 521 l 608 608 l 694 608 l 694 521 l 608 521 m 694 608 l 694 694 l 781 694 l 781 608 l 694 608 m 608 87 l 694 87 l 694 0 l 608 0 l 608 87 m 694 0 l 781 0 l 781 -87 l 694 -87 l 694 0 m 174 87 l 174 0 l 87 0 l 87 87 l 174 87 m 87 0 l 87 -87 l 0 -87 l 0 0 l 87 0 m 347 521 l 347 434 l 260 434 l 260 347 l 260 260 l 260 174 l 347 174 l 347 87 l 434 87 l 434 174 l 521 174 l 521 260 l 521 347 l 521 434 l 434 434 l 434 521 l 347 521 z "},"":{"ha":260,"x_min":0,"x_max":174,"o":"m 0 1042 l 87 1042 l 174 1042 l 174 955 l 174 868 l 174 781 l 174 694 l 174 608 l 87 608 l 0 608 l 0 694 l 0 781 l 0 868 l 0 955 l 0 1042 m 0 434 l 87 434 l 174 434 l 174 347 l 174 260 l 174 174 l 174 87 l 174 0 l 87 0 l 0 0 l 0 87 l 0 174 l 0 260 l 0 347 l 0 434 z "},"":{"ha":521,"x_min":0,"x_max":434,"o":"m 0 1042 l 87 1042 l 174 1042 l 174 955 l 174 868 l 87 868 l 0 868 l 0 955 l 0 1042 m 260 1042 l 347 1042 l 434 1042 l 434 955 l 434 868 l 347 868 l 260 868 l 260 955 l 260 1042 z "},"":{"ha":260,"x_min":0,"x_max":260,"o":"m 87 174 l 174 174 l 260 174 l 260 87 l 260 0 l 174 0 l 174 -87 l 87 -87 l 0 -87 l 0 0 l 87 0 l 87 87 l 87 174 z "},"":{"ha":347,"x_min":0,"x_max":260,"o":"m 87 1042 l 174 1042 l 260 1042 l 260 955 l 174 955 l 174 868 l 87 868 l 87 781 l 0 781 l 0 868 l 0 955 l 87 955 l 87 1042 z "},"":{"ha":955,"x_min":0,"x_max":868,"o":"m 87 1042 l 174 1042 l 174 955 l 174 868 l 174 781 l 174 694 l 260 694 l 260 608 l 174 608 l 87 608 l 0 608 l 0 694 l 87 694 l 87 781 l 87 868 l 0 868 l 0 955 l 87 955 l 87 1042 m 608 1042 l 694 1042 l 781 1042 l 781 955 l 694 955 l 694 868 l 608 868 l 608 781 l 608 694 l 521 694 l 521 608 l 521 521 l 434 521 l 434 434 l 434 347 l 347 347 l 347 260 l 347 174 l 260 174 l 260 87 l 174 87 l 174 0 l 87 0 l 0 0 l 0 87 l 87 87 l 87 174 l 174 174 l 174 260 l 174 347 l 260 347 l 260 434 l 260 521 l 347 521 l 347 608 l 347 694 l 434 694 l 434 781 l 434 868 l 521 868 l 521 955 l 608 955 l 608 1042 m 694 521 l 781 521 l 781 434 l 781 347 l 781 260 l 868 260 l 868 174 l 781 174 l 781 87 l 694 87 l 694 174 l 608 174 l 521 174 l 521 260 l 521 347 l 608 347 l 608 260 l 694 260 l 694 347 l 608 347 l 608 434 l 694 434 l 694 521 z "},"":{"ha":955,"x_min":0,"x_max":781,"o":"m 87 1042 l 174 1042 l 174 955 l 174 868 l 174 781 l 174 694 l 260 694 l 260 608 l 174 608 l 87 608 l 0 608 l 0 694 l 87 694 l 87 781 l 87 868 l 0 868 l 0 955 l 87 955 l 87 1042 m 608 1042 l 694 1042 l 781 1042 l 781 955 l 694 955 l 694 868 l 608 868 l 608 781 l 608 694 l 521 694 l 521 608 l 521 521 l 434 521 l 434 434 l 434 347 l 347 347 l 347 260 l 347 174 l 260 174 l 260 87 l 174 87 l 174 0 l 87 0 l 0 0 l 0 87 l 87 87 l 87 174 l 174 174 l 174 260 l 174 347 l 260 347 l 260 434 l 260 521 l 347 521 l 347 608 l 347 694 l 434 694 l 434 781 l 434 868 l 521 868 l 521 955 l 608 955 l 608 1042 m 608 521 l 694 521 l 694 434 l 608 434 l 608 521 m 694 434 l 781 434 l 781 347 l 781 260 l 694 260 l 694 347 l 694 434 m 694 260 l 694 174 l 781 174 l 781 87 l 694 87 l 608 87 l 521 87 l 521 174 l 608 174 l 608 260 l 694 260 m 608 434 l 608 347 l 521 347 l 521 434 l 608 434 z "},"":{"ha":955,"x_min":0,"x_max":868,"o":"m 0 1042 l 87 1042 l 174 1042 l 174 955 l 87 955 l 0 955 l 0 1042 m 174 955 l 260 955 l 260 868 l 174 868 l 174 955 m 174 868 l 174 781 l 87 781 l 87 868 l 174 868 m 174 781 l 260 781 l 260 694 l 174 694 l 174 781 m 174 694 l 174 608 l 87 608 l 0 608 l 0 694 l 87 694 l 174 694 m 608 1042 l 694 1042 l 781 1042 l 781 955 l 694 955 l 694 868 l 608 868 l 608 781 l 608 694 l 521 694 l 521 608 l 521 521 l 434 521 l 434 434 l 434 347 l 347 347 l 347 260 l 347 174 l 260 174 l 260 87 l 174 87 l 174 0 l 87 0 l 0 0 l 0 87 l 87 87 l 87 174 l 174 174 l 174 260 l 174 347 l 260 347 l 260 434 l 260 521 l 347 521 l 347 608 l 347 694 l 434 694 l 434 781 l 434 868 l 521 868 l 521 955 l 608 955 l 608 1042 m 694 521 l 781 521 l 781 434 l 781 347 l 781 260 l 868 260 l 868 174 l 781 174 l 781 87 l 694 87 l 694 174 l 608 174 l 521 174 l 521 260 l 521 347 l 608 347 l 608 260 l 694 260 l 694 347 l 608 347 l 608 434 l 694 434 l 694 521 z "}}}
